# This file uses centimeters as units for non-parametric coordinates.

mtllib InsideCorner_HP.mtl
g default
v 2.977167 0.006688 -2.006735
v 2.977167 0.000000 -2.022880
v 2.993312 0.006688 -2.022846
v 3.000000 0.022833 -2.022833
v 2.993309 0.022834 -2.006704
v 2.977167 0.022833 -2.000047
v 2.977167 0.000000 -2.500027
v 2.977167 0.000000 -2.516172
v 2.993312 0.006688 -2.516152
v 3.000000 0.022833 -2.516145
v 3.000000 0.022833 -2.500000
v 3.000000 0.022833 -2.483855
v 2.993312 0.006688 -2.483862
v 2.977167 0.000000 -2.483881
v 2.977176 0.006688 -2.993312
v 2.977167 0.022833 -3.000000
v 2.993312 0.022835 -2.993312
v 3.000000 0.022833 -2.977167
v 2.993312 0.006688 -2.977154
v 2.977167 0.000000 -2.977167
v 2.977165 0.993312 -2.006735
v 2.977167 0.977167 -2.000047
v 2.993309 0.977154 -2.006711
v 3.000000 0.977143 -2.022857
v 2.993312 0.993305 -2.022858
v 2.977167 1.000000 -2.022880
v 2.977419 0.996450 -2.498349
v 2.977370 1.000000 -2.482357
v 2.993380 0.993313 -2.483090
v 3.000000 0.977140 -2.483836
v 3.000000 0.967564 -2.501152
v 3.000000 0.944237 -2.516362
v 2.993492 0.974140 -2.513511
v 2.977453 0.986469 -2.511302
v 2.976479 0.398952 -2.997083
v 2.976494 0.413590 -2.988682
v 2.993510 0.407746 -2.983392
v 3.000000 0.392124 -2.978245
v 2.993510 0.383417 -2.992194
v 2.976491 0.382329 -3.000000
v 0.993258 0.993377 -1.988074
v 1.000048 0.977386 -1.981494
v 1.006608 0.977501 -1.997469
v 1.022436 0.977612 -2.004062
v 1.015932 0.993444 -2.010888
v 1.000021 1.000000 -2.027156
v 0.983737 1.000000 -2.020415
v 0.976988 1.000000 -2.004081
v 0.501505 0.996353 -2.479123
v 0.517984 1.000000 -2.462111
v 0.524824 1.000000 -2.478196
v 0.541330 1.000000 -2.484847
v 0.524024 0.996345 -2.501444
v 0.510130 0.985808 -2.514703
v 0.494659 0.985824 -2.508311
v 0.488250 0.985843 -2.492845
v 0.003768 0.399965 -2.974353
v 0.012048 0.414429 -2.965814
v 0.018964 0.414527 -2.982038
v 0.035653 0.414619 -2.988758
v 0.026754 0.399924 -2.997155
v 0.023459 0.384131 -3.000000
v 0.007523 0.384133 -2.993401
v 0.000918 0.384125 -2.977467
v 0.007656 0.006552 -2.970535
v 0.000918 0.022372 -2.977628
v 0.007339 0.022139 -2.993449
v 0.022837 0.021912 -3.000000
v 0.030189 0.006416 -2.993305
v 0.047588 0.000000 -2.976741
v 0.031032 0.000000 -2.969975
v 0.024169 0.000000 -2.953643
v 0.993257 0.006623 -1.988073
v 0.976988 0.000000 -2.004081
v 0.983737 0.000000 -2.020574
v 1.000021 0.000000 -2.027380
v 1.016098 0.006623 -2.010954
v 1.022665 0.022617 -2.004061
v 1.006675 0.022614 -1.997468
v 1.000048 0.022614 -1.981494
v 0.500048 0.000000 -2.480140
v 0.483903 0.000000 -2.496243
v 0.490589 0.000000 -2.512407
v 0.506724 0.000000 -2.519088
v 0.522931 0.000000 -2.502923
v 0.539137 0.000000 -2.486759
v 0.522915 0.000000 -2.480113
v 0.516193 0.000000 -2.464036
v 0.993313 0.993312 -0.022835
v 0.977167 1.000000 -0.022833
v 0.977168 0.993312 -0.006688
v 0.977167 0.977167 0.000000
v 0.993313 0.977168 -0.006688
v 1.000001 0.977167 -0.022833
v 0.501678 0.996450 -0.022588
v 0.488725 0.986469 -0.022557
v 0.486526 0.974205 -0.006512
v 0.483708 0.944460 0.000000
v 0.498935 0.967547 0.000000
v 0.516261 0.977003 0.000000
v 0.516968 0.993272 -0.006620
v 0.517671 1.000000 -0.022630
v 0.007821 0.383564 -0.006373
v 0.021757 0.392123 0.000000
v 0.016526 0.407626 -0.006374
v 0.011163 0.413395 -0.023172
v 0.002882 0.398968 -0.023180
v 0.000007 0.382584 -0.023174
v 0.993313 0.006688 -0.022833
v 1.000001 0.022833 -0.022833
v 0.993313 0.022834 -0.006688
v 0.977167 0.022833 0.000000
v 0.977168 0.006688 -0.006688
v 0.977167 0.000000 -0.022833
v 0.500000 0.000000 -0.022833
v 0.516146 0.000000 -0.022833
v 0.516145 0.006688 -0.006688
v 0.516145 0.022833 0.000000
v 0.500000 0.022833 0.000000
v 0.483855 0.022833 0.000000
v 0.483855 0.006688 -0.006688
v 0.483855 0.000000 -0.022833
v 0.006695 0.006688 -0.022829
v 0.022840 0.000000 -0.022833
v 0.022848 0.006688 -0.006688
v 0.022833 0.022833 0.000000
v 0.006690 0.022834 -0.006688
v 0.000007 0.022833 -0.022833
v 2.990343 0.009655 -2.009676
v 2.993312 0.006688 -2.500005
v 2.990345 0.009657 -2.990353
v 2.990342 0.990340 -2.009681
v 2.993419 0.988054 -2.499604
v 2.990481 0.397244 -2.992365
v 0.999911 0.993411 -2.004212
v 0.508125 0.996348 -2.494883
v 0.010513 0.399992 -2.990453
v 0.014272 0.006484 -2.986611
v 0.999963 0.006623 -2.004263
v 0.506752 0.000000 -2.496260
v 0.990346 0.990345 -0.009656
v 0.500441 0.988046 -0.006583
v 0.007613 0.397254 -0.009356
v 0.990346 0.009655 -0.009655
v 0.500003 0.006688 -0.006688
v 0.009650 0.009656 -0.009657
vt 0.078918 0.522801
vt 0.600929 0.557200
vt 0.005657 0.522804
vt 0.585498 0.522777
vt 0.700163 0.557216
vt 0.512239 0.522781
vt 0.504977 0.522782
vt 0.600902 0.749167
vt 0.693632 0.749182
vt 0.700176 0.742564
vt 0.793105 0.631517
vt 0.447847 0.522892
vt 0.086155 0.833396
vt 0.237876 0.163564
vt 0.245153 0.836987
vt 0.318060 0.909877
vt 0.323877 0.914837
vt 0.442253 0.990374
vt 0.447746 0.992315
vt 0.505153 0.992412
vt 0.512345 0.988471
vt 0.585502 0.915368
vt 0.086147 0.163571
vt 0.005681 0.910240
vt 0.078889 0.159987
vt 0.005657 0.087065
vt 0.245113 0.475465
vt 0.318135 0.475494
vt 0.086196 0.475472
vt 0.978128 0.019570
vt 0.323742 0.475509
vt 0.442290 0.475405
vt 0.971044 0.126235
vt 0.447826 0.475409
vt 0.504996 0.475461
vt 0.005675 0.475476
vt 0.771840 0.019541
vt 0.771826 0.119195
vt 0.512257 0.475455
vt 0.771825 0.126175
vt 0.771811 0.225829
vt 0.693667 0.557215
vt 0.792901 0.557232
vt 0.245092 0.522793
vt 0.318110 0.522757
vt 0.323720 0.522744
vt 0.442226 0.522891
vt 0.078849 0.836994
vt 0.237919 0.833425
vt 0.086175 0.522800
vt 0.237834 0.522793
vt 0.978079 0.119199
vt 0.851637 0.226073
vt 0.078939 0.475473
vt 0.585520 0.475452
vt 0.512578 0.009684
vt 0.585505 0.081937
vt 0.505303 0.005895
vt 0.447308 0.005923
vt 0.237856 0.475465
vt 0.245135 0.159979
vt 0.318074 0.087356
vt 0.323850 0.082485
vt 0.441837 0.007765
vt 0.082547 0.522787
vt 0.599168 0.552607
vt 0.080309 0.519172
vt 0.084784 0.519172
vt 0.596336 0.555440
vt 0.588064 0.521938
vt 0.003088 0.521965
vt 0.700223 0.552623
vt 0.585451 0.519149
vt 0.696914 0.557200
vt 0.005700 0.519176
vt 0.693609 0.552622
vt 0.508609 0.522772
vt 0.797494 0.555503
vt 0.506343 0.519153
vt 0.510847 0.519152
vt 0.794657 0.552639
vt 0.241468 0.522780
vt 0.596304 0.750929
vt 0.239223 0.519165
vt 0.243699 0.519165
vt 0.599134 0.753764
vt 0.320912 0.522747
vt 0.693335 0.753780
vt 0.318119 0.519161
vt 0.697106 0.747312
vt 0.324093 0.519161
vt 0.699454 0.750696
vt 0.445037 0.522886
vt 0.795633 0.635320
vt 0.442759 0.519156
vt 0.447355 0.519155
vt 0.797482 0.630171
vt 0.241494 0.162521
vt 0.238509 0.836983
vt 0.238501 0.159963
vt 0.241521 0.834460
vt 0.244190 0.157255
vt 0.244198 0.839703
vt 0.320967 0.084649
vt 0.318212 0.913710
vt 0.318197 0.083583
vt 0.320983 0.912640
vt 0.323840 0.079017
vt 0.323865 0.918310
vt 0.444619 0.006407
vt 0.442530 0.994277
vt 0.442070 0.003943
vt 0.445077 0.991798
vt 0.447250 0.002342
vt 0.447689 0.995897
vt 0.508872 0.006995
vt 0.505674 0.995895
vt 0.505905 0.002339
vt 0.508644 0.991257
vt 0.511678 0.005102
vt 0.511423 0.993098
vt 0.082528 0.162528
vt 0.079834 0.839717
vt 0.079826 0.157255
vt 0.082521 0.834439
vt 0.085537 0.159970
vt 0.085544 0.836990
vt 0.588067 0.083646
vt 0.003092 0.083673
vt 0.585473 0.919034
vt 0.585468 0.078278
vt 0.003106 0.913659
vt 0.588082 0.913632
vt 0.005694 0.083473
vt 0.005708 0.913849
vt 0.241484 0.475477
vt 0.983064 0.017677
vt 0.243721 0.479101
vt 0.239247 0.479101
vt 0.980020 0.014634
vt 0.320937 0.475505
vt 0.979742 0.125470
vt 0.324108 0.479097
vt 0.976097 0.122933
vt 0.318140 0.479098
vt 0.983050 0.118902
vt 0.850221 0.230776
vt 0.447353 0.479092
vt 0.442804 0.479092
vt 0.855697 0.228811
vt 0.445056 0.475413
vt 0.082569 0.475485
vt 0.769949 0.014605
vt 0.084806 0.479108
vt 0.080330 0.479109
vt 0.766904 0.017649
vt 0.003110 0.476320
vt 0.588086 0.476293
vt 0.766890 0.119131
vt 0.005722 0.479112
vt 0.771807 0.122685
vt 0.585473 0.479085
vt 0.766890 0.126239
vt 0.508622 0.475467
vt 0.766875 0.227716
vt 0.510869 0.479089
vt 0.506365 0.479089
vt 0.769952 0.230765
vt 0.082546 0.519172
vt 0.596337 0.552606
vt 0.696916 0.552623
vt 0.003088 0.519176
vt 0.588064 0.519149
vt 0.508605 0.519152
vt 0.797494 0.552639
vt 0.241463 0.519165
vt 0.596304 0.753764
vt 0.696882 0.753780
vt 0.320921 0.519161
vt 0.445039 0.519155
vt 0.797481 0.633103
vt 0.241477 0.836983
vt 0.241470 0.159962
vt 0.320939 0.916437
vt 0.320925 0.080868
vt 0.445061 0.995897
vt 0.444592 0.002342
vt 0.508627 0.995895
vt 0.508892 0.002339
vt 0.082561 0.836990
vt 0.082553 0.159970
vt 0.588082 0.916425
vt 0.003106 0.916452
vt 0.003091 0.080883
vt 0.588067 0.080856
vt 0.241485 0.479101
vt 0.983065 0.014635
vt 0.983050 0.122715
vt 0.320943 0.479098
vt 0.853339 0.230776
vt 0.445061 0.479092
vt 0.082568 0.479109
vt 0.766905 0.014605
vt 0.766890 0.122685
vt 0.588086 0.479085
vt 0.003110 0.479112
vt 0.508627 0.479089
vt 0.766875 0.230764
vn 0.002970 -0.999917 0.012525
vn 0.001255 -0.925623 0.378445
vn -0.000149 -0.925779 0.378065
vn 0.000026 -0.999990 0.004560
vn 0.000190 -0.388634 0.921392
vn 0.001322 -0.006974 0.999975
vn 0.001289 -0.008577 0.999962
vn 0.002575 -0.390529 0.920587
vn 0.999880 -0.006808 0.013942
vn 0.924246 -0.381697 0.008726
vn 0.923881 -0.382680 -0.000000
vn 0.999976 -0.006886 -0.000000
vn 0.381679 -0.924254 0.008751
vn 0.003000 -0.999996 -0.000000
vn 0.382684 -0.923879 -0.000000
vn 0.380945 -0.004271 0.924588
vn 0.380951 0.004275 0.924585
vn 0.001321 0.006940 0.999975
vn 0.923939 -0.004267 0.382516
vn 0.999880 0.006771 0.013948
vn 0.923941 0.004285 0.382510
vn 0.002482 -0.999997 -0.000000
vn 0.002707 -0.999996 -0.000000
vn 0.000000 -1.000000 0.000000
vn 0.000000 -1.000000 0.000000
vn 0.000000 -1.000000 0.000000
vn 0.999950 -0.009961 -0.000000
vn 0.923884 -0.382673 -0.000000
vn 0.924251 -0.381686 -0.008723
vn 0.999917 -0.010119 -0.007927
vn 0.382683 -0.923880 -0.000000
vn 0.002434 -0.999886 -0.014920
vn 0.381698 -0.924246 -0.008720
vn 0.999976 -0.006955 -0.000000
vn 0.999929 0.008396 -0.008432
vn 0.999977 0.006826 -0.000139
vn 0.999048 0.027914 -0.033519
vn 0.002403 -0.017718 -0.999840
vn 0.001495 -0.389322 -0.921101
vn -0.001305 -0.390078 -0.920781
vn -0.002244 -0.013356 -0.999908
vn 0.001407 -0.928327 -0.371762
vn -0.000045 -0.999163 -0.040907
vn -0.002047 -0.929086 -0.369857
vn 0.916825 -0.011885 -0.399112
vn 0.915014 0.003603 -0.403406
vn 0.999952 0.004385 -0.008822
vn 0.398644 -0.009066 -0.917061
vn 0.002491 0.007608 -0.999968
vn 0.399545 0.005938 -0.916694
vn 0.000248 0.388660 0.921381
vn 0.002577 0.390539 0.920583
vn 0.001279 0.008542 0.999963
vn 0.001312 0.925658 0.378359
vn 0.002974 0.999917 0.012506
vn 0.000026 0.999990 0.004558
vn -0.000113 0.925811 0.377988
vn 0.383164 0.923637 0.008913
vn 0.385338 0.922728 -0.009420
vn 0.003095 0.999960 -0.008385
vn 0.925093 0.379638 0.008810
vn 0.925146 0.379586 -0.004442
vn 0.003255 0.903971 -0.427582
vn -0.000480 0.852813 -0.522216
vn -0.000007 0.999735 -0.023032
vn 0.002230 0.642520 -0.766266
vn -0.000594 0.641200 -0.767373
vn 0.389594 0.589836 -0.707326
vn 0.389412 0.587039 -0.709749
vn 0.003157 0.636072 -0.771623
vn 0.920071 0.249819 -0.301760
vn 0.921227 0.247542 -0.300107
vn 0.002036 0.342934 -0.939357
vn -0.002259 0.304739 -0.952433
vn -0.002840 0.634538 -0.772886
vn -0.002233 0.006717 -0.999975
vn 0.999958 0.008526 0.003358
vn 0.921491 0.388373 0.004484
vn 0.922285 0.386504 0.002124
vn 0.999970 0.006933 0.003390
vn 0.379279 0.925282 0.000658
vn 0.004579 0.999990 0.000035
vn 0.012515 0.999917 0.002990
vn 0.379645 0.925130 0.002067
vn 0.382828 0.010173 0.923764
vn 0.382822 -0.010276 0.923765
vn 0.924289 0.010321 0.381554
vn 0.999958 -0.008527 0.003345
vn 0.924288 -0.010236 0.381559
vn 0.004246 0.999982 0.004254
vn -0.006091 0.999962 -0.006238
vn -0.022832 0.999739 -0.000034
vn -0.521162 0.853457 -0.001108
vn -0.427724 0.903905 0.002763
vn -0.008366 0.999960 0.003081
vn -0.766595 0.642129 -0.001149
vn -0.765510 0.643422 0.001676
vn -0.454343 0.763570 -0.458840
vn -0.628076 0.732612 -0.262298
vn -0.772041 0.635564 -0.003337
vn -0.259058 0.731023 -0.631264
vn -0.952204 0.305451 -0.002597
vn -0.939550 0.342409 0.001733
vn -0.770837 0.637027 0.002604
vn -0.999974 0.006736 -0.002522
vn -0.999969 0.007571 0.002181
vn -0.925054 0.010059 -0.379703
vn -0.925068 -0.020862 -0.379228
vn -0.999904 -0.013600 -0.002557
vn -0.385746 0.010303 -0.922548
vn -0.385942 0.000491 -0.922523
vn -0.921724 -0.387844 -0.001621
vn -0.922032 -0.387112 0.001150
vn -0.999840 -0.017766 0.002093
vn -0.373711 -0.927543 -0.002110
vn -0.040791 -0.999168 -0.000060
vn -0.015033 -0.999884 0.002421
vn -0.375508 -0.926818 0.001266
vn -0.011063 -0.999879 -0.010905
vn 0.000000 -1.000000 0.000000
vn 0.000000 -1.000000 0.000000
vn 0.004562 -0.999990 0.000035
vn 0.379283 -0.925281 0.000659
vn 0.379649 -0.925128 0.002067
vn 0.012470 -0.999918 0.002978
vn 0.921484 -0.388390 0.004508
vn 0.999970 -0.006934 0.003390
vn 0.922280 -0.386515 0.002124
vn 0.004289 -0.999982 0.004279
vn 0.000000 -1.000000 0.000000
vn 0.000000 -1.000000 0.000000
vn 0.000000 -1.000000 0.000000
vn 0.000000 -0.999996 0.002704
vn -0.000000 -0.999997 0.002471
vn -0.000000 -0.999996 0.002993
vn 0.013940 0.006774 0.999880
vn 0.008703 0.378887 0.925402
vn -0.004494 0.378787 0.925473
vn -0.000139 0.006832 0.999977
vn 0.008849 0.923290 0.384001
vn -0.009411 0.922361 0.386215
vn 0.924062 0.004274 0.382218
vn 0.924062 -0.004273 0.382218
vn 0.382199 0.004274 0.924070
vn 0.013938 -0.006812 0.999880
vn 0.382199 -0.004273 0.924070
vn -0.033240 0.027690 0.999064
vn -0.300118 0.248762 0.920895
vn -0.298502 0.246304 0.922080
vn -0.008781 0.004365 0.999952
vn -0.706738 0.589530 0.391121
vn -0.709107 0.586743 0.391024
vn -0.008354 0.008411 0.999930
vn -0.000000 -0.006953 0.999976
vn -0.000000 -0.006886 0.999976
vn 0.000000 -0.009961 0.999950
vn -0.400462 0.003396 0.916307
vn -0.396366 -0.012042 0.918014
vn -0.007858 -0.010119 0.999918
vn -0.915630 0.005564 0.401984
vn -0.916083 -0.009348 0.400880
vn 0.008730 -0.924248 0.381693
vn -0.000000 -0.923880 0.382682
vn 0.008730 -0.381696 0.924247
vn -0.000000 -0.382685 0.923879
vn -0.000000 -0.923879 0.382684
vn -0.008724 -0.924247 0.381696
vn 0.000000 -0.382683 0.923880
vn -0.008724 -0.381698 0.924246
vn 0.323802 -0.325400 0.888407
vn 0.324701 -0.888084 0.325386
vn 0.887729 -0.325409 0.325647
vn 0.382683 -0.923880 -0.000000
vn 0.923879 -0.382684 0.000000
vn 0.325458 -0.887941 -0.325021
vn 0.325180 -0.324966 -0.888062
vn 0.887954 -0.325345 -0.325098
vn 0.325184 0.887943 0.325289
vn 0.324285 0.325308 0.888264
vn 0.887979 0.325067 0.325308
vn 0.397814 0.784792 -0.475233
vn 0.924338 0.320621 -0.206887
vn 0.381394 0.314593 -0.869236
vn 0.844662 0.182128 -0.503364
vn 0.195669 0.960962 0.195617
vn 0.809372 0.482203 0.335258
vn 0.334530 0.484624 0.808226
vn -0.248355 0.935558 -0.251099
vn -0.837500 0.419767 -0.349842
vn -0.344651 0.421147 -0.838958
vn -0.188851 -0.964349 -0.185384
vn -0.806412 -0.494072 -0.324950
vn -0.340116 -0.501535 -0.795477
vn -0.340116 -0.501535 -0.795477
vn 0.809378 -0.482009 0.335522
vn 0.196436 -0.960950 0.194906
vn 0.334301 -0.484688 0.808282
vn 0.000000 -1.000000 0.000000
vn 0.887915 0.325297 0.325253
vn 0.325288 0.887919 0.325251
vn 0.325276 0.325290 0.887909
vn -0.473760 0.785389 0.398391
vn -0.204781 0.319905 0.925054
vn -0.867186 0.313852 0.386633
vn -0.496549 0.179655 0.849213
vn 0.325278 -0.887916 0.325267
vn 0.887917 -0.325266 0.325279
vn 0.325279 -0.325260 0.887919
vn 0.000000 -0.923880 0.382683
vn -0.000000 -0.382684 0.923880
vn -0.888124 -0.325058 0.324921
vn -0.325081 -0.887964 0.325335
vn -0.325189 -0.325405 0.887898
s 1
g InsideCorner_HP
usemtl initialShadingGroup
f 2/1/1 1/65/2 77/125/3 76/48/4
s 2
f 1/65/5 6/50/6 78/13/7 77/125/8
s 3
f 4/2/9 3/66/10 13/76/11 12/42/12
s 1
f 3/67/13 2/1/1 14/3/14 13/75/15
s 2
f 6/50/6 5/68/16 23/84/17 22/51/18
s 3
f 5/69/19 4/2/9 24/8/20 23/83/21
s 1
f 8/4/22 7/70/23 85/133/24 84/22/25
f 7/71/23 14/3/14 86/24/26 85/132/24
s 3
f 10/5/27 9/72/28 19/81/29 18/43/30
s 1
f 9/73/31 8/4/22 20/6/32 19/80/33
s 3
f 12/42/12 11/74/34 31/90/35 30/9/36
f 11/74/34 10/5/27 32/10/37 31/90/35
s 6
f 16/7/38 15/77/39 69/119/40 68/20/41
s 1
f 15/77/42 20/6/32 70/21/43 69/119/44
s 3
f 18/43/30 17/78/45 39/97/46 38/11/47
s 6
f 17/79/48 16/7/38 40/12/49 39/96/50
s 2
f 22/51/18 21/82/51 45/101/52 44/49/53
s 6
f 21/82/54 26/44/55 46/15/56 45/101/57
f 26/44/55 25/85/58 29/89/59 28/45/60
s 3
f 25/86/61 24/8/20 30/9/36 29/88/62
s 6
f 28/45/60 27/87/63 53/107/64 52/16/65
f 27/87/63 34/46/66 54/17/67 53/107/64
f 34/46/66 33/91/68 37/95/69 36/47/70
s 3
f 33/92/71 32/10/37 38/11/47 37/94/72
s 6
f 36/47/70 35/93/73 61/113/74 60/18/75
f 35/93/73 40/12/49 62/19/76 61/113/74
s 8
f 42/14/77 41/98/78 89/136/79 94/60/80
s 6
f 41/98/81 48/61/82 90/27/83 89/136/84
s 2
f 44/49/53 43/99/85 79/127/86 78/13/7
s 8
f 43/100/87 42/14/77 80/23/88 79/126/89
s 6
f 48/61/82 47/102/90 51/106/91 50/62/92
f 47/103/90 46/15/56 52/16/65 51/105/91
f 50/62/92 49/104/93 95/141/94 102/28/95
f 49/104/93 56/63/96 96/31/97 95/141/94
f 56/63/96 55/108/98 59/112/99 58/64/100
f 55/109/98 54/17/67 60/18/75 59/111/101
f 58/64/100 57/110/102 107/151/103 106/32/104
f 57/110/102 64/59/105 108/34/106 107/151/103
f 64/59/105 63/114/107 67/118/108 66/58/109
f 63/115/110 62/19/76 68/20/41 67/117/111
f 66/58/109 65/116/112 123/164/113 128/35/114
s 1
f 65/116/115 72/56/116 124/39/117 123/164/118
f 72/56/116 71/120/119 83/131/120 82/57/121
f 71/121/119 70/21/43 84/22/25 83/130/120
f 74/25/122 73/122/123 109/152/124 114/54/125
s 8
f 73/122/126 80/23/88 110/29/127 109/152/128
s 1
f 76/48/4 75/123/129 87/135/130 86/24/26
f 75/124/129 74/25/122 88/26/131 87/134/130
f 82/57/121 81/128/132 115/158/133 122/55/134
f 81/129/132 88/26/131 116/36/135 115/157/133
s 12
f 92/30/136 91/137/137 101/146/138 100/52/139
s 6
f 91/138/140 90/27/83 102/28/95 101/145/141
s 8
f 94/60/80 93/139/142 111/154/143 110/29/127
s 12
f 93/140/144 92/30/136 112/37/145 111/153/146
f 98/33/147 97/142/148 105/150/149 104/53/150
s 6
f 97/143/151 96/31/97 106/32/104 105/149/152
s 12
f 100/52/139 99/144/153 119/161/154 118/38/155
f 99/144/153 98/33/147 120/40/156 119/161/154
f 104/53/150 103/147/157 127/168/158 126/41/159
s 6
f 103/148/160 108/34/106 128/35/114 127/167/161
s 1
f 114/54/125 113/155/162 117/160/163 116/36/135
s 12
f 113/156/164 112/37/145 118/38/155 117/159/165
s 1
f 122/55/134 121/162/166 125/166/167 124/39/117
s 12
f 121/163/168 120/40/156 126/41/159 125/165/169
s 3
f 4/2/9 12/42/12 30/9/36 24/8/20
f 10/5/27 18/43/30 38/11/47 32/10/37
s 6
f 26/44/55 28/45/60 52/16/65 46/15/56
f 34/46/66 36/47/70 60/18/75 54/17/67
f 16/7/38 68/20/41 62/19/76 40/12/49
s 1
f 76/48/4 86/24/26 14/3/14 2/1/1
f 84/22/25 70/21/43 20/6/32 8/4/22
s 2
f 44/49/53 78/13/7 6/50/6 22/51/18
s 12
f 92/30/136 100/52/139 118/38/155 112/37/145
f 98/33/147 104/53/150 126/41/159 120/40/156
s 1
f 114/54/125 116/36/135 88/26/131 74/25/122
f 122/55/134 124/39/117 72/56/116 82/57/121
s 6
f 66/58/109 128/35/114 108/34/106 64/59/105
s 8
f 110/29/127 80/23/88 42/14/77 94/60/80
s 6
f 48/61/82 50/62/92 102/28/95 90/27/83
f 56/63/96 58/64/100 106/32/104 96/31/97
s 2
f 5/68/16 6/50/6 1/65/5 129/169/170
s 1
f 1/65/2 2/1/1 3/67/13 129/169/171
s 3
f 3/66/10 4/2/9 5/69/19 129/170/172
s 1
f 13/75/15 14/3/14 7/71/23 130/172/173
f 7/70/23 8/4/22 9/73/31 130/173/173
s 3
f 9/72/28 10/5/27 11/74/34 130/171/174
f 11/74/34 12/42/12 13/76/11 130/171/174
s 1
f 19/80/33 20/6/32 15/77/42 131/174/175
s 6
f 15/77/39 16/7/38 17/79/48 131/174/176
s 3
f 17/78/45 18/43/30 19/81/29 131/175/177
s 6
f 25/85/58 26/44/55 21/82/54 132/176/178
s 2
f 21/82/51 22/51/18 23/84/17 132/176/179
s 3
f 23/83/21 24/8/20 25/86/61 132/177/180
s 6
f 33/91/68 34/46/66 27/87/63 133/179/181
f 27/87/63 28/45/60 29/89/59 133/179/181
s 3
f 29/88/62 30/9/36 31/90/35 133/178/182
f 31/90/35 32/10/37 33/92/71 133/178/182
s 6
f 39/96/50 40/12/49 35/93/73 134/180/183
f 35/93/73 36/47/70 37/95/69 134/180/183
s 3
f 37/94/72 38/11/47 39/97/46 134/181/184
s 6
f 47/102/90 48/61/82 41/98/81 135/183/185
s 8
f 41/98/78 42/14/77 43/100/87 135/183/186
s 2
f 43/99/85 44/49/53 45/101/52 135/182/187
s 6
f 45/101/57 46/15/56 47/103/90 135/182/185
f 55/108/98 56/63/96 49/104/93 136/185/188
f 49/104/93 50/62/92 51/106/91 136/185/188
f 51/105/91 52/16/65 53/107/64 136/184/188
f 53/107/64 54/17/67 55/109/98 136/184/188
f 63/114/107 64/59/105 57/110/102 137/187/189
f 57/110/102 58/64/100 59/112/99 137/187/189
f 59/111/101 60/18/75 61/113/74 137/186/190
f 61/113/74 62/19/76 63/115/110 137/186/190
s 1
f 71/120/119 72/56/116 65/116/115 138/189/191
s 6
f 65/116/112 66/58/109 67/118/108 138/189/192
f 67/117/193 68/20/41 69/119/40 138/188/194
s 1
f 69/119/44 70/21/43 71/121/119 138/188/191
s 8
f 79/126/89 80/23/88 73/122/126 139/191/195
s 1
f 73/122/123 74/25/122 75/124/129 139/191/196
f 75/123/129 76/48/4 77/125/3 139/190/196
s 2
f 77/125/8 78/13/7 79/127/86 139/190/197
s 1
f 87/134/130 88/26/131 81/129/132 140/194/198
f 81/128/132 82/57/121 83/131/120 140/195/198
f 83/130/120 84/22/25 85/133/24 140/192/198
f 85/132/24 86/24/26 87/135/130 140/193/198
s 8
f 93/139/142 94/60/80 89/136/79 141/196/199
s 6
f 89/136/84 90/27/83 91/138/140 141/196/200
s 12
f 91/137/137 92/30/136 93/140/144 141/197/201
s 6
f 101/145/141 102/28/95 95/141/94 142/199/202
f 95/141/94 96/31/97 97/143/151 142/199/202
s 12
f 97/142/148 98/33/147 99/144/153 142/198/203
f 99/144/153 100/52/139 101/146/138 142/198/203
s 6
f 107/151/103 108/34/106 103/148/160 143/201/204
s 12
f 103/147/157 104/53/150 105/150/149 143/200/205
s 6
f 105/149/152 106/32/104 107/151/103 143/201/204
s 1
f 113/155/162 114/54/125 109/152/124 144/202/206
s 8
f 109/152/128 110/29/127 111/154/143 144/202/207
s 12
f 111/153/146 112/37/145 113/156/164 144/203/208
s 1
f 121/162/166 122/55/134 115/158/133 145/205/209
f 115/157/133 116/36/135 117/160/163 145/206/209
s 12
f 117/159/165 118/38/155 119/161/154 145/204/210
f 119/161/154 120/40/156 121/163/168 145/204/210
s 6
f 127/167/161 128/35/114 123/164/113 146/207/211
s 1
f 123/164/118 124/39/117 125/166/167 146/207/212
s 12
f 125/165/169 126/41/159 127/168/158 146/208/213
