# This file uses centimeters as units for non-parametric coordinates.

mtllib OutsideBend_LP.mtl
g default
v 0.152234 0.000000 -2.949105
v 0.475957 0.000000 -2.567834
v 0.805822 0.000000 -2.192294
v 0.156681 1.000000 -2.953233
v 0.482486 1.000000 -2.573895
v 0.805953 0.400000 -2.192426
v 2.999999 1.000000 -3.997334
v 3.000000 1.000000 -3.497334
v 3.000000 0.400000 -2.997333
v 2.999999 0.000000 -3.997333
v 3.000000 0.000000 -3.497333
v 2.999999 0.000000 -2.997333
v -0.996448 0.000000 -0.001510
v -0.496605 0.000000 -0.001354
v 0.000346 0.000000 0.001510
v -0.996448 1.000000 -0.001510
v -0.496573 1.000000 -0.001385
v 0.000346 0.400000 0.001510
v 1.408170 1.000000 -3.750103
v 1.408169 0.000000 -3.750104
v 1.582370 0.000000 -3.272263
v 1.761152 0.000000 -2.798713
v 1.761219 0.400000 -2.798778
v 1.584712 1.000000 -3.274438
v -0.685149 1.000000 -1.639979
v -0.686822 0.000000 -1.638425
v -0.242741 0.000000 -1.430463
v 0.198149 0.000000 -1.219536
v 0.198149 0.400000 -1.219536
v -0.240074 1.000000 -1.432939
v -0.917409 1.000000 -0.842324
v -0.917409 0.000000 -0.842324
v -0.433521 0.000000 -0.738706
v 0.043372 0.000000 -0.628575
v 0.043371 0.400000 -0.628575
v -0.432422 1.000000 -0.739730
v -0.326325 0.000000 -2.349162
v -0.322786 1.000000 -2.352447
v 0.067952 1.000000 -2.051418
v 0.454771 0.400000 -1.746779
v 0.454667 0.000000 -1.746675
v 0.063414 0.000000 -2.047205
v 0.737363 1.000000 -3.421634
v 0.736248 0.000000 -3.420599
v 0.985905 0.000000 -2.978746
v 1.244245 0.000000 -2.544989
v 1.244398 0.400000 -2.545143
v 0.991195 1.000000 -2.983655
v 2.158020 0.000000 -3.939692
v 2.158019 1.000000 -3.939692
v 2.250929 1.000000 -3.445017
v 2.344278 0.400000 -2.950742
v 2.344276 0.000000 -2.950742
v 2.250927 0.000000 -3.445018
v 2.560377 0.000000 -3.986149
v 2.560377 1.000000 -3.986149
v 2.608078 1.000000 -3.487341
v 2.655928 0.400000 -2.988667
v 2.655927 0.000000 -2.988668
v 2.608077 0.000000 -3.487341
v 0.639925 0.000000 -2.379165
v 0.258636 0.000000 -1.896562
v -0.022041 0.000000 -1.325240
v -0.194364 0.000000 -0.684301
v -0.247138 0.000000 -0.000844
v -0.246790 0.700000 -0.001169
v -0.193946 0.700000 -0.684691
v -0.021201 0.700000 -1.326024
v 0.259959 0.700000 -1.897793
v 0.641749 0.700000 -2.380863
v 1.115927 0.700000 -2.762660
v 1.672764 0.700000 -3.036423
v 2.297689 0.700000 -3.197969
v 2.631979 0.700000 -3.237986
v 3.000001 0.700000 -3.247334
v 3.000000 0.000000 -3.247333
v 2.631980 0.000000 -3.237986
v 2.297690 0.000000 -3.197970
v 1.670553 0.000000 -3.034362
v 1.113629 0.000000 -2.760521
v 1.061565 0.000000 -3.602909
v 1.061564 1.000000 -3.602909
v 1.277786 1.000000 -3.143871
v 1.384854 0.700000 -2.913404
v 1.493686 0.400000 -2.684584
v 1.493523 0.000000 -2.684421
v 1.382346 0.000000 -2.911070
v 1.274454 0.000000 -3.140775
v 0.434976 1.000000 -3.204577
v 0.432323 0.000000 -3.202114
v 0.719325 0.000000 -2.787563
v 0.865756 0.000000 -2.583020
v 1.014630 0.000000 -2.380751
v 1.014772 0.400000 -2.380895
v 0.867827 0.700000 -2.584947
v 0.726342 1.000000 -2.794075
v -0.101097 0.000000 -2.664212
v -0.096542 1.000000 -2.668441
v 0.262478 1.000000 -2.325696
v 0.438781 0.700000 -2.151361
v 0.618967 0.400000 -1.980636
v 0.618849 0.000000 -1.980518
v 0.437208 0.000000 -2.149896
v 0.256954 0.000000 -2.320569
v -0.519479 1.000000 -2.008655
v -0.522048 0.000000 -2.006269
v -0.103527 0.000000 -1.749698
v 0.105220 0.000000 -1.620940
v 0.314181 0.000000 -1.492385
v 0.314180 0.400000 -1.492385
v 0.106296 0.700000 -1.621943
v -0.099949 1.000000 -1.753019
v -0.819143 0.000000 -1.249093
v -0.818293 1.000000 -1.249882
v -0.351272 1.000000 -1.094074
v -0.121612 0.700000 -1.012593
v 0.107601 0.400000 -0.930684
v 0.107601 0.000000 -0.930684
v -0.122232 0.000000 -1.012015
v -0.353093 0.000000 -1.092383
v -0.979271 1.000000 -0.423335
v -0.979271 0.000000 -0.423335
v -0.482963 0.000000 -0.373108
v -0.237653 0.000000 -0.345346
v 0.006222 0.000000 -0.316248
v 0.006221 0.400000 -0.316248
v -0.237208 0.700000 -0.345760
v -0.482544 1.000000 -0.373501
v 1.774062 1.000000 -3.862012
v 1.774063 0.000000 -3.862012
v 1.908406 0.000000 -3.373534
v 1.976647 0.000000 -3.130302
v 2.045320 0.000000 -2.887461
v 2.045321 0.400000 -2.887461
v 1.977187 0.700000 -3.130810
v 1.909003 1.000000 -3.374088
vt 0.082546 0.002359
vt 0.003088 0.002362
vt 0.320921 0.002348
vt 0.241463 0.002352
vt 0.508605 0.002339
vt 0.445039 0.002342
vt 0.821232 0.809392
vt 0.821247 0.701313
vt 0.445061 0.479092
vt 0.588086 0.479085
vt 0.082568 0.479109
vt 0.508627 0.479089
vt 0.691521 0.917454
vt 0.605057 0.917442
vt 0.241485 0.479101
vt 0.605087 0.701282
vt 0.605072 0.809362
vt 0.320943 0.479098
vt 0.003110 0.479112
vt 0.588064 0.002336
vt 0.596337 0.113447
vt 0.696916 0.113464
vt 0.696882 0.314622
vt 0.596304 0.314605
vt 0.797494 0.113481
vt 0.797481 0.193944
vt 0.241463 0.526202
vt 0.320921 0.526199
vt 0.320943 1.002949
vt 0.241485 1.002952
vt 0.445039 0.526193
vt 0.445061 1.002943
vt 0.082568 1.002959
vt 0.003110 1.002963
vt 0.003088 0.526213
vt 0.082546 0.526210
vt 0.588086 1.002936
vt 0.508627 1.002940
vt 0.508605 0.526190
vt 0.588064 0.526186
vt 0.241474 0.240726
vt 0.082557 0.240734
vt 0.003099 0.240737
vt 0.588075 0.240710
vt 0.508616 0.240714
vt 0.445050 0.240717
vt 0.320932 0.240723
vt 0.241474 0.764577
vt 0.082557 0.764585
vt 0.003099 0.764588
vt 0.588075 0.764561
vt 0.508616 0.764565
vt 0.445050 0.764568
vt 0.320932 0.764574
vt 0.241468 0.645390
vt 0.082552 0.645397
vt 0.003093 0.645401
vt 0.588069 0.645374
vt 0.508611 0.645378
vt 0.445044 0.645380
vt 0.320926 0.645386
vt 0.082563 0.883772
vt 0.241479 0.883765
vt 0.320937 0.883761
vt 0.445055 0.883755
vt 0.508622 0.883752
vt 0.003104 0.883776
vt 0.588080 0.883749
vt 0.241468 0.121539
vt 0.082552 0.121546
vt 0.003093 0.121550
vt 0.588069 0.121523
vt 0.508611 0.121527
vt 0.445044 0.121530
vt 0.320926 0.121535
vt 0.082563 0.359921
vt 0.241479 0.359914
vt 0.320937 0.359910
vt 0.445055 0.359904
vt 0.508622 0.359901
vt 0.003104 0.359925
vt 0.588080 0.359898
vt 0.082565 0.419515
vt 0.241482 0.419508
vt 0.320940 0.419504
vt 0.445058 0.419498
vt 0.508625 0.419495
vt 0.003107 0.419518
vt 0.588083 0.419492
vt 0.548356 1.002938
vt 0.548335 0.002337
vt 0.548351 0.883751
vt 0.548346 0.764563
vt 0.548340 0.645376
vt 0.747205 0.113472
vt 0.548335 0.526188
vt 0.382980 0.526196
vt 0.747182 0.254283
vt 0.382985 0.645383
vt 0.382991 0.764571
vt 0.382996 0.883758
vt 0.382980 0.002345
vt 0.383002 1.002946
vt 0.382985 0.121532
vt 0.382991 0.240720
vt 0.382996 0.359907
vt 0.382999 0.419501
vt 0.756376 0.863423
vt 0.383002 0.479095
vt 0.548356 0.479087
vt 0.605065 0.863402
vt 0.548354 0.419493
vt 0.548351 0.359900
vt 0.548346 0.240712
vt 0.548340 0.121525
vt 0.082554 0.181140
vt 0.241471 0.181133
vt 0.320929 0.181129
vt 0.382988 0.181126
vt 0.445047 0.181123
vt 0.508614 0.181120
vt 0.548343 0.181119
vt 0.003096 0.181144
vt 0.588072 0.181117
vt 0.241465 0.061945
vt 0.082549 0.061953
vt 0.003091 0.061956
vt 0.588066 0.061929
vt 0.548337 0.061931
vt 0.508608 0.061933
vt 0.445042 0.061936
vt 0.382983 0.061939
vt 0.320924 0.061942
vt 0.082565 0.943366
vt 0.241482 0.943358
vt 0.320940 0.943355
vt 0.382999 0.943352
vt 0.445058 0.943349
vt 0.508625 0.943346
vt 0.548354 0.943344
vt 0.003107 0.943369
vt 0.588083 0.943342
vt 0.241476 0.824171
vt 0.082560 0.824178
vt 0.003102 0.824182
vt 0.588077 0.824155
vt 0.548348 0.824157
vt 0.508619 0.824159
vt 0.445053 0.824162
vt 0.382994 0.824164
vt 0.320935 0.824167
vt 0.082554 0.704991
vt 0.241471 0.704984
vt 0.320929 0.704980
vt 0.382988 0.704977
vt 0.445047 0.704974
vt 0.508614 0.704971
vt 0.548343 0.704969
vt 0.003096 0.704994
vt 0.588072 0.704968
vt 0.241465 0.585796
vt 0.082549 0.585803
vt 0.003091 0.585807
vt 0.588066 0.585780
vt 0.548337 0.585782
vt 0.508608 0.585784
vt 0.445042 0.585787
vt 0.382983 0.585790
vt 0.320924 0.585792
vt 0.241476 0.300320
vt 0.082560 0.300327
vt 0.003102 0.300331
vt 0.588077 0.300304
vt 0.548348 0.300306
vt 0.508619 0.300308
vt 0.445053 0.300311
vt 0.382994 0.300314
vt 0.320935 0.300316
vn 0.000000 1.000000 0.000000
vn 0.238688 0.934415 0.264381
vn 0.209859 0.942075 0.261637
vn 0.000000 1.000000 0.000000
vn 0.514796 0.640141 0.570267
vn 0.480926 0.642238 0.596859
vn 1.000000 -0.000000 -0.000001
vn 1.000000 -0.000000 -0.000001
vn 1.000000 -0.000000 -0.000002
vn 1.000000 -0.000000 -0.000001
vn 1.000000 -0.000001 -0.000003
vn 1.000000 -0.000001 -0.000001
vn 0.000000 -1.000000 0.000000
vn 0.000000 -1.000000 0.000000
vn 0.000000 -1.000000 0.000000
vn 0.000000 -1.000000 0.000000
vn 0.000000 -1.000000 0.000000
vn 0.000000 -1.000000 0.000000
vn 0.670006 0.000026 0.742356
vn 0.626829 0.000057 0.779157
vn 0.626801 0.000057 0.779179
vn 0.670006 0.000026 0.742356
vn -0.627906 -0.000193 -0.778290
vn -0.628105 -0.000193 -0.778128
vn -0.670291 -0.000066 -0.742098
vn -0.670291 -0.000066 -0.742098
vn -0.000281 0.000016 1.000000
vn -0.000593 0.000074 1.000000
vn -0.000447 0.000046 1.000000
vn -0.000281 0.000016 1.000000
vn -0.004713 0.000244 0.999989
vn -0.002655 0.000223 0.999996
vn 0.000000 1.000000 0.000000
vn 0.342488 0.939454 0.011283
vn 0.338829 0.940430 0.028059
vn 0.000000 1.000000 0.000000
vn 0.771950 0.635305 0.021901
vn 0.770929 0.634079 0.060101
vn 0.000000 -1.000000 0.000000
vn 0.000000 -1.000000 0.000000
vn 0.000000 -1.000000 0.000000
vn 0.000000 -1.000000 0.000000
vn 0.000000 -1.000000 0.000000
vn 0.000000 -1.000000 0.000000
vn 0.999829 0.000002 0.018486
vn 0.997677 0.000002 0.068126
vn 0.997677 0.000002 0.068126
vn 0.999829 0.000002 0.018486
vn -0.995611 -0.000000 -0.093590
vn -0.995611 -0.000000 -0.093590
vn -0.999172 -0.000000 -0.040687
vn -0.999172 -0.000000 -0.040687
vn -0.025432 0.000000 -0.999677
vn -0.068299 0.000000 -0.997665
vn -0.068299 0.000000 -0.997665
vn -0.025432 0.000000 -0.999677
vn 0.000000 -1.000000 0.000000
vn 0.000000 -1.000000 0.000000
vn 0.000000 -1.000000 0.000000
vn 0.000000 -1.000000 0.000000
vn 0.000000 -1.000000 0.000000
vn 0.000000 -1.000000 0.000000
vn 0.070874 -0.000001 0.997485
vn 0.070875 -0.000001 0.997485
vn 0.025177 -0.000000 0.999683
vn 0.025177 -0.000000 0.999683
vn 0.023975 0.940128 0.339976
vn 0.053851 0.641000 0.765649
vn 0.019492 0.640021 0.768110
vn 0.008821 0.937965 0.346617
vn 0.000000 1.000000 0.000000
vn 0.000000 1.000000 0.000000
vn -0.747300 0.000587 -0.664487
vn -0.781809 0.000851 -0.623517
vn -0.781551 0.000849 -0.623841
vn -0.747300 0.000587 -0.664487
vn 0.000000 -1.000000 0.000000
vn 0.000000 -1.000000 0.000000
vn 0.000000 -1.000000 0.000000
vn 0.000000 -1.000000 0.000000
vn 0.000000 -1.000000 0.000000
vn 0.000000 -1.000000 0.000000
vn 0.785428 -0.000047 0.618952
vn 0.785447 -0.000047 0.618929
vn 0.749642 -0.000026 0.661843
vn 0.749642 -0.000026 0.661843
vn 0.265267 0.940774 0.211135
vn 0.605826 0.635471 0.478698
vn 0.577618 0.636596 0.510983
vn 0.239194 0.947592 0.211792
vn 0.000000 1.000000 -0.000000
vn 0.000000 1.000000 -0.000000
vn -0.930654 0.000973 -0.365899
vn -0.930699 0.000972 -0.365785
vn -0.960331 0.000567 -0.278862
vn -0.960315 0.000567 -0.278917
vn 0.000000 -1.000000 0.000000
vn 0.000000 -1.000000 0.000000
vn 0.000000 -1.000000 0.000000
vn 0.000000 -1.000000 0.000000
vn 0.000000 -1.000000 0.000000
vn 0.000000 -1.000000 0.000000
vn 0.967371 -0.000001 0.253362
vn 0.967371 -0.000001 0.253362
vn 0.938540 -0.000000 0.345171
vn 0.938540 -0.000000 0.345171
vn 0.330732 0.939332 0.090948
vn 0.750309 0.629313 0.202489
vn 0.727998 0.629024 0.272668
vn 0.320979 0.939205 0.121930
vn 0.000000 1.000000 0.000000
vn 0.000000 1.000000 0.000000
vn -0.891541 0.001188 -0.452938
vn -0.891634 0.001188 -0.452756
vn 0.306765 0.939461 0.152669
vn 0.000000 1.000000 0.000000
vn 0.696701 0.630113 0.342878
vn 0.899168 -0.000024 0.437603
vn 0.899168 -0.000024 0.437603
vn 0.000000 -1.000000 0.000000
vn 0.000000 -1.000000 0.000000
vn 0.000000 -1.000000 0.000000
vn -0.341758 0.000000 -0.939788
vn -0.341758 0.000000 -0.939788
vn -0.440035 -0.000089 -0.897980
vn -0.440035 -0.000089 -0.897980
vn 0.000000 -1.000000 0.000000
vn 0.000000 -1.000000 0.000000
vn 0.000000 -1.000000 0.000000
vn 0.000000 -1.000000 0.000000
vn 0.000000 -1.000000 0.000000
vn 0.000000 -1.000000 0.000000
vn 0.440582 0.000151 0.897712
vn 0.440615 0.000151 0.897696
vn 0.345255 0.000100 0.938509
vn 0.345242 0.000100 0.938514
vn 0.147505 0.942170 0.300928
vn 0.336602 0.645719 0.685381
vn 0.262879 0.645508 0.717087
vn 0.115394 0.941939 0.315334
vn 0.000000 1.000000 0.000000
vn 0.000000 1.000000 0.000000
vn -0.245122 0.000000 -0.969492
vn -0.245122 0.000000 -0.969492
vn 0.084393 0.941077 0.327494
vn 0.000000 1.000000 0.000000
vn 0.191302 0.644139 0.740600
vn 0.252244 0.000025 0.967664
vn 0.252244 0.000025 0.967664
vn 0.000000 -1.000000 0.000000
vn 0.000000 -1.000000 0.000000
vn 0.000000 -1.000000 0.000000
vn -0.155941 -0.000000 -0.987766
vn -0.155941 -0.000000 -0.987766
vn 0.000000 1.000000 0.000000
vn 0.054841 0.940320 0.335844
vn 0.123792 0.642383 0.756320
vn 0.163517 -0.000001 0.986541
vn 0.163517 -0.000001 0.986540
vn 0.000000 -1.000000 0.000000
vn 0.000000 -1.000000 0.000000
vn 0.000000 -1.000000 0.000000
vn 0.000000 -1.000000 0.000000
vn 0.000000 -1.000000 0.000000
vn 0.000000 -1.000000 0.000000
vn 0.000000 -1.000000 0.000000
vn 0.000000 -1.000000 0.000000
vn 0.000000 -1.000000 0.000000
vn 0.000000 -1.000000 0.000000
vn -0.009995 0.000298 0.999950
vn -0.009995 0.000298 0.999950
vn 0.772503 0.632574 0.055581
vn 0.773574 0.633449 0.018052
vn 0.751677 0.628951 0.198502
vn 0.729263 0.629139 0.268999
vn 0.697825 0.630610 0.339664
vn 0.606689 0.636026 0.476864
vn 0.577605 0.637068 0.510408
vn 0.481504 0.641873 0.596786
vn 0.514811 0.640061 0.570343
vn 0.337051 0.645167 0.685680
vn 0.263403 0.645271 0.717109
vn 0.191906 0.644148 0.740436
vn 0.124235 0.642450 0.756190
vn 0.053769 0.641021 0.765637
vn 0.019431 0.640006 0.768124
vn 1.000000 -0.000002 0.000004
vn 1.000000 -0.000002 0.000004
vn 0.000000 -1.000000 0.000000
vn 0.000000 -1.000000 0.000000
vn 0.000000 -1.000000 0.000000
vn 0.000000 -1.000000 0.000000
vn 0.000000 -1.000000 0.000000
vn 0.000000 -1.000000 0.000000
vn 0.000000 -1.000000 0.000000
vn 0.000000 -1.000000 0.000000
vn -0.536902 -0.000251 -0.843644
vn -0.536812 -0.000251 -0.843702
vn 0.000000 1.000000 0.000000
vn 0.179116 0.942270 0.282921
vn 0.409872 0.644622 0.645343
vn 0.410451 0.643946 0.645649
vn 0.535507 0.000120 0.844531
vn 0.535539 0.000120 0.844511
vn 0.000000 -1.000000 0.000000
vn 0.000000 -1.000000 0.000000
vn 0.000000 -1.000000 0.000000
vn 0.000000 -1.000000 0.000000
vn -0.842195 0.001178 -0.539172
vn -0.842032 0.001177 -0.539427
vn 0.000000 1.000000 0.000000
vn 0.288058 0.940044 0.182593
vn 0.655975 0.632376 0.412065
vn 0.656966 0.633040 0.409457
vn 0.848298 -0.000059 0.529520
vn 0.848311 -0.000059 0.529499
vn 0.000000 -1.000000 0.000000
vn 0.000000 -1.000000 0.000000
vn 0.000000 -1.000000 0.000000
vn 0.000000 -1.000000 0.000000
vn -0.981635 0.000159 -0.190769
vn -0.981635 0.000159 -0.190769
vn 0.000000 1.000000 0.000000
vn 0.336674 0.939695 0.060201
vn 0.764279 0.631041 0.132908
vn 0.765725 0.630157 0.128712
vn 0.986660 0.000001 0.162795
vn 0.986660 0.000001 0.162795
vn 0.000000 -1.000000 0.000000
vn 0.000000 -1.000000 0.000000
vn 0.000000 -1.000000 0.000000
vn 0.000000 -1.000000 0.000000
s 1
g OutsideBend
usemtl initialShadingGroup
f 4/4/1 5/3/2 96/133/3 89/125/4
f 5/3/2 70/102/5 95/132/6 96/133/3
s 2
f 7/8/7 8/7/8 11/17/9 10/16/10
f 8/7/8 75/108/11 76/111/12 11/17/9
s 3
f 90/126/13 91/127/14 2/2/15 1/1/16
f 91/128/14 92/129/17 61/91/18 2/20/15
s 4
f 3/5/19 93/130/20 94/131/21 6/6/22
s 5
f 89/125/23 90/126/24 1/1/25 4/4/26
s 6
f 13/21/27 14/22/28 17/23/29 16/24/30
f 14/22/28 65/95/31 66/98/32 17/23/29
s 7
f 16/27/33 17/28/34 128/169/35 121/161/36
f 17/28/34 66/97/37 127/168/38 128/169/35
s 8
f 122/162/39 123/163/40 14/35/41 13/36/42
f 123/164/40 124/165/43 65/96/44 14/40/41
s 9
f 15/39/45 125/166/46 126/167/47 18/31/48
s 10
f 121/161/49 122/162/50 13/36/51 16/27/52
s 5
f 10/11/53 55/83/54 56/84/55 7/15/56
s 3
f 10/11/57 11/19/58 60/88/59 55/83/60
f 11/10/58 76/110/61 77/112/62 60/89/59
s 4
f 58/86/63 59/87/64 12/12/65 9/9/66
s 1
f 57/85/67 74/107/68 75/109/69 8/18/70
f 56/84/71 57/85/67 8/18/70 7/15/72
s 10
f 1/33/73 97/134/74 98/135/75 4/30/76
s 8
f 1/33/77 2/34/78 104/141/79 97/134/80
f 2/37/78 61/90/81 103/140/82 104/142/79
s 9
f 101/138/83 102/139/84 3/38/85 6/32/86
s 7
f 99/136/87 100/137/88 70/103/89 5/29/90
f 98/135/91 99/136/87 5/29/90 4/30/92
s 10
f 25/48/93 26/49/94 113/152/95 114/153/96
s 8
f 26/49/97 27/50/98 120/159/99 113/152/100
f 27/51/98 63/93/101 119/158/102 120/160/99
s 9
f 117/156/103 118/157/104 28/52/105 29/53/106
s 7
f 115/154/107 116/155/108 68/100/109 30/54/110
f 114/153/111 115/154/107 30/54/110 25/48/112
s 10
f 105/143/113 106/144/114 26/49/94 25/48/93
s 7
f 25/48/112 30/54/110 112/151/115 105/143/116
f 30/54/110 68/100/109 111/150/117 112/151/115
s 9
f 29/53/106 28/52/105 109/148/118 110/149/119
s 8
f 107/146/120 108/147/121 63/93/101 27/51/98
f 106/144/122 107/145/120 27/50/98 26/49/97
s 5
f 19/41/123 20/42/124 81/116/125 82/117/126
s 3
f 20/42/127 21/43/128 88/123/129 81/116/130
f 21/44/128 79/114/131 87/122/132 88/124/129
s 4
f 85/120/133 86/121/134 22/45/135 23/46/136
s 1
f 83/118/137 84/119/138 72/105/139 24/47/140
f 82/117/141 83/118/137 24/47/140 19/41/142
s 5
f 129/170/143 130/171/144 20/42/124 19/41/123
s 1
f 19/41/142 24/47/140 136/178/145 129/170/146
f 24/47/140 72/105/139 135/177/147 136/178/145
s 4
f 23/46/136 22/45/135 133/175/148 134/176/149
s 3
f 131/173/150 132/174/151 79/114/131 21/44/128
f 130/171/152 131/172/150 21/43/128 20/42/127
s 5
f 56/84/55 55/83/54 49/76/153 50/77/154
s 1
f 50/77/155 51/78/156 57/85/67 56/84/71
f 51/78/156 73/106/157 74/107/68 57/85/67
s 4
f 52/79/158 53/80/159 59/87/64 58/86/63
s 3
f 60/89/59 77/112/62 78/113/160 54/82/161
f 55/83/60 60/88/59 54/81/161 49/76/162
s 8
f 102/139/163 103/140/82 61/90/81 3/38/164
f 63/93/101 108/147/121 109/148/165 28/52/166
f 118/157/167 119/158/102 63/93/101 28/52/166
f 65/96/44 124/165/43 125/166/168 15/39/169
s 6
f 66/98/32 65/95/31 15/25/170 18/26/171
s 7
f 126/167/172 127/168/38 66/97/37 18/31/173
f 68/100/109 116/155/108 117/156/174 29/53/175
f 110/149/176 111/150/117 68/100/109 29/53/175
f 70/103/89 100/137/88 101/138/177 6/32/178
s 1
f 94/131/179 95/132/6 70/102/5 6/6/180
f 72/105/139 84/119/138 85/120/181 23/46/182
f 134/176/183 135/177/147 72/105/139 23/46/182
f 74/107/68 73/106/157 52/79/184 58/86/185
f 75/109/69 74/107/68 58/86/185 9/9/186
s 2
f 76/111/12 75/108/11 9/13/187 12/14/188
s 3
f 77/112/62 76/110/61 12/12/189 59/87/190
f 78/113/160 77/112/62 59/87/190 53/80/191
f 79/114/131 132/174/151 133/175/192 22/45/193
f 86/121/194 87/122/132 79/114/131 22/45/193
f 61/91/18 92/129/17 93/130/195 3/5/196
s 5
f 82/117/126 81/116/125 44/70/197 43/69/198
s 1
f 43/69/199 48/75/200 83/118/137 82/117/141
f 48/75/200 71/104/201 84/119/138 83/118/137
f 85/120/181 84/119/138 71/104/201 47/74/202
s 4
f 47/74/203 46/73/204 86/121/134 85/120/133
s 3
f 80/115/205 87/122/132 86/121/194 46/73/206
f 88/124/129 87/122/132 80/115/205 45/72/207
f 81/116/130 88/123/129 45/71/207 44/70/208
s 5
f 43/69/198 44/70/197 90/126/24 89/125/23
s 3
f 44/70/208 45/71/207 91/127/14 90/126/13
f 45/72/207 80/115/205 92/129/17 91/128/14
f 93/130/195 92/129/17 80/115/205 46/73/206
s 4
f 94/131/21 93/130/20 46/73/204 47/74/203
s 1
f 71/104/201 95/132/6 94/131/179 47/74/202
f 96/133/3 95/132/6 71/104/201 48/75/200
f 89/125/4 96/133/3 48/75/200 43/69/199
s 10
f 98/135/75 97/134/74 37/62/209 38/63/210
s 7
f 38/63/211 39/64/212 99/136/87 98/135/91
f 39/64/212 69/101/213 100/137/88 99/136/87
f 101/138/177 100/137/88 69/101/213 40/65/214
s 9
f 40/65/215 41/66/216 102/139/84 101/138/83
s 8
f 62/92/217 103/140/82 102/139/163 41/66/218
f 104/142/79 103/140/82 62/92/217 42/68/219
f 97/134/80 104/141/79 42/67/219 37/62/220
s 10
f 38/63/210 37/62/209 106/144/114 105/143/113
s 8
f 37/62/220 42/67/219 107/145/120 106/144/122
f 42/68/219 62/92/217 108/147/121 107/146/120
f 109/148/165 108/147/121 62/92/217 41/66/218
s 9
f 110/149/119 109/148/118 41/66/216 40/65/215
s 7
f 69/101/213 111/150/117 110/149/176 40/65/214
f 112/151/115 111/150/117 69/101/213 39/64/212
f 105/143/116 112/151/115 39/64/212 38/63/211
s 10
f 114/153/96 113/152/95 32/56/221 31/55/222
s 7
f 31/55/223 36/61/224 115/154/107 114/153/111
f 36/61/224 67/99/225 116/155/108 115/154/107
f 117/156/174 116/155/108 67/99/225 35/60/226
s 9
f 35/60/227 34/59/228 118/157/104 117/156/103
s 8
f 64/94/229 119/158/102 118/157/167 34/59/230
f 120/160/99 119/158/102 64/94/229 33/58/231
f 113/152/100 120/159/99 33/57/231 32/56/232
s 10
f 31/55/222 32/56/221 122/162/50 121/161/49
s 8
f 32/56/232 33/57/231 123/163/40 122/162/39
f 33/58/231 64/94/229 124/165/43 123/164/40
f 125/166/168 124/165/43 64/94/229 34/59/230
s 9
f 126/167/47 125/166/46 34/59/228 35/60/227
s 7
f 67/99/225 127/168/38 126/167/172 35/60/226
f 128/169/35 127/168/38 67/99/225 36/61/224
f 121/161/36 128/169/35 36/61/224 31/55/223
s 5
f 50/77/154 49/76/153 130/171/144 129/170/143
s 3
f 49/76/162 54/81/161 131/172/150 130/171/152
f 54/82/161 78/113/160 132/174/151 131/173/150
f 133/175/192 132/174/151 78/113/160 53/80/191
s 4
f 134/176/149 133/175/148 53/80/159 52/79/158
s 1
f 73/106/157 135/177/147 134/176/183 52/79/184
f 136/178/145 135/177/147 73/106/157 51/78/156
f 129/170/146 136/178/145 51/78/156 50/77/155
