# This file uses centimeters as units for non-parametric coordinates.

mtllib OutsideCorner_HP.mtl
g default
v -0.992660 0.007340 -0.025061
v -0.974939 0.000000 -0.025061
v -0.974940 0.007340 -0.007340
v -0.974939 0.025061 0.000000
v -0.992660 0.025062 -0.007340
v -1.000000 0.025061 -0.025061
v -0.500006 0.000000 -0.025061
v -0.482285 0.000000 -0.025061
v -0.482282 0.007340 -0.007340
v -0.482279 0.025061 0.000000
v -0.500000 0.025061 0.000000
v -0.517721 0.025061 0.000000
v -0.517722 0.007340 -0.007340
v -0.517726 0.000000 -0.025061
v -0.007340 0.007340 -0.025050
v 0.000000 0.025061 -0.025061
v -0.007340 0.025062 -0.007340
v -0.025061 0.025061 0.000000
v -0.025077 0.007340 -0.007340
v -0.025061 0.000000 -0.025061
v -0.992660 0.992660 -0.025063
v -1.000000 0.974939 -0.025061
v -0.992660 0.974938 -0.007340
v -0.974939 0.974939 0.000000
v -0.974940 0.992660 -0.007340
v -0.974939 1.000000 -0.025061
v -0.501841 0.996103 -0.024789
v -0.519394 1.000000 -0.024838
v -0.518573 0.992661 -0.007265
v -0.517742 0.974908 0.000000
v -0.498739 0.964392 0.000000
v -0.482042 0.938780 0.000000
v -0.485178 0.971611 -0.007144
v -0.487624 0.985149 -0.024758
v -0.003201 0.398841 -0.025819
v -0.012422 0.414907 -0.025802
v -0.018227 0.408499 -0.007125
v -0.023879 0.391355 0.000000
v -0.008567 0.381797 -0.007124
v 0.000000 0.380596 -0.025802
v -0.967613 0.992809 -3.992594
v -0.975444 0.975444 -4.000000
v -0.992809 0.975699 -3.992956
v -1.000000 0.975948 -3.975948
v -0.992647 0.992959 -3.967922
v -0.974472 1.000000 -3.948945
v -0.966995 1.000000 -3.966995
v -0.948945 1.000000 -3.974472
v -0.476921 0.996143 -3.502353
v -0.491895 1.000000 -3.519568
v -0.510152 1.000000 -3.511688
v -0.517721 1.000000 -3.492660
v -0.501561 0.996126 -3.477437
v -0.487473 0.984967 -3.464238
v -0.480667 0.984967 -3.480667
v -0.464238 0.984967 -3.487473
v 0.021786 0.399157 -3.003274
v 0.013156 0.414657 -3.012214
v -0.004888 0.414746 -3.004736
v -0.012362 0.414835 -2.986684
v -0.003347 0.399291 -2.978132
v 0.000000 0.381387 -2.975250
v 0.007249 0.381390 -2.992751
v 0.024750 0.381387 -3.000000
v -0.967620 0.007191 -3.992605
v -0.949007 0.000000 -3.974472
v -0.966681 0.000000 -3.966703
v -0.974005 0.000000 -3.947948
v -0.992511 0.007188 -3.967265
v -1.000000 0.024556 -3.975444
v -0.992808 0.024555 -3.992808
v -0.975444 0.024556 -4.000000
v -0.475719 0.000000 -3.500000
v -0.457978 0.000000 -3.482279
v -0.475729 0.000000 -3.474950
v -0.483078 0.000000 -3.457257
v -0.500803 0.000000 -3.474962
v -0.518528 0.000000 -3.492666
v -0.511188 0.000000 -3.510382
v -0.493460 0.000000 -3.517721
v 0.017583 0.007266 -3.007455
v 0.024809 0.024809 -3.000000
v 0.007266 0.024680 -2.992808
v 0.000000 0.024555 -2.975446
v -0.007475 0.007190 -2.982571
v -0.025306 0.000000 -2.999979
v -0.017901 0.000000 -3.017885
v -0.000020 0.000000 -3.025301
v 2.992660 0.974940 -3.992660
v 2.974939 0.974939 -4.000000
v 2.974938 0.992660 -3.992660
v 2.974939 1.000000 -3.974939
v 2.992660 0.992660 -3.974940
v 3.000000 0.974939 -3.974939
v 3.000000 0.964296 -3.498793
v 3.000000 0.974759 -3.517848
v 2.992702 0.992617 -3.518667
v 2.975051 1.000000 -3.519481
v 2.975152 0.996103 -3.501864
v 2.975242 0.985149 -3.487624
v 2.992856 0.971611 -3.485178
v 3.000000 0.938780 -3.482042
v 2.993006 0.381959 -3.008579
v 3.000000 0.391355 -3.023879
v 2.993004 0.408367 -3.018133
v 2.974568 0.414692 -3.012244
v 2.974559 0.398858 -3.003155
v 2.974568 0.380875 -3.000000
v 2.974939 0.007340 -3.992660
v 2.974939 0.025061 -4.000000
v 2.992660 0.025062 -3.992660
v 3.000000 0.025061 -3.974939
v 2.992660 0.007340 -3.974940
v 2.974939 0.000000 -3.974939
v 2.974939 0.000000 -3.500000
v 2.974939 0.000000 -3.517721
v 2.992660 0.007340 -3.517720
v 3.000000 0.025061 -3.517721
v 3.000000 0.025061 -3.500000
v 3.000000 0.025061 -3.482279
v 2.992660 0.007340 -3.482281
v 2.974939 0.000000 -3.482279
v 2.974945 0.007340 -3.007340
v 2.974939 0.000000 -3.025061
v 2.992660 0.007340 -3.025077
v 3.000000 0.025061 -3.025061
v 2.992660 0.025061 -3.007340
v 2.974939 0.025061 -3.000000
v -0.989403 0.010597 -0.010597
v -0.500005 0.007340 -0.007340
v -0.010587 0.010599 -0.010597
v -0.989403 0.989403 -0.010598
v -0.500444 0.986886 -0.007223
v -0.008380 0.396971 -0.010449
v -0.985291 0.992884 -3.985351
v -0.494251 0.996131 -3.494993
v 0.004033 0.399176 -2.995891
v -0.985185 0.007190 -3.985175
v -0.493458 0.000000 -3.492666
v -0.000123 0.007228 -3.000159
v 2.989402 0.989403 -3.989403
v 2.992757 0.986857 -3.500481
v 2.989732 0.396981 -3.008352
v 2.989403 0.010597 -3.989403
v 2.992660 0.007340 -3.500004
v 2.989400 0.010598 -3.010587
vt 0.078563 0.503315
vt 0.783169 0.777812
vt 0.005904 0.503318
vt 0.761569 0.503860
vt 0.882271 0.777829
vt 0.688909 0.503864
vt 0.680944 0.503864
vt 0.783137 0.968887
vt 0.875106 0.968896
vt 0.882289 0.961630
vt 0.974470 0.851526
vt 0.624444 0.503984
vt 0.086470 0.973724
vt 0.237560 0.005279
vt 0.255352 0.430268
vt 0.331836 0.494933
vt 0.336901 0.498961
vt 0.416461 0.566639
vt 0.624339 0.972700
vt 0.681046 0.972729
vt 0.086449 0.005285
vt 0.005930 0.973664
vt 0.078490 0.005399
vt 0.005904 0.005347
vt 0.688964 0.973186
vt 0.752602 0.005751
vt 0.679981 0.005787
vt 0.086550 0.476121
vt 0.443285 0.004590
vt 0.515793 0.005073
vt 0.520864 0.005079
vt 0.596543 0.005702
vt 0.615454 0.475050
vt 0.671999 0.475107
vt 0.005926 0.475699
vt 0.779806 0.479517
vt 0.878638 0.479758
vt 0.679964 0.475106
vt 0.886299 0.479777
vt 0.985131 0.480019
vt 0.875142 0.777827
vt 0.974244 0.777844
vt 0.255273 0.986359
vt 0.331556 0.986390
vt 0.336876 0.986402
vt 0.416451 0.986253
vt 0.078430 0.973551
vt 0.761594 0.973215
vt 0.086529 0.502888
vt 0.237480 0.502881
vt 0.237662 0.973777
vt 0.441739 0.601866
vt 0.514347 0.532794
vt 0.519468 0.528620
vt 0.595325 0.456475
vt 0.780308 0.274192
vt 0.879112 0.274472
vt 0.886833 0.282269
vt 0.985580 0.400842
vt 0.078585 0.475696
vt 0.752623 0.475103
vt 0.672017 0.006282
vt 0.615351 0.006275
vt 0.237502 0.476115
vt 0.082541 0.503098
vt 0.781243 0.772771
vt 0.080085 0.499901
vt 0.085007 0.499901
vt 0.778128 0.775885
vt 0.764385 0.502499
vt 0.003088 0.502526
vt 0.882344 0.772787
vt 0.761511 0.499878
vt 0.878706 0.777809
vt 0.005960 0.499904
vt 0.875072 0.772786
vt 0.684924 0.503854
vt 0.979286 0.775955
vt 0.682436 0.499881
vt 0.687391 0.499881
vt 0.976166 0.772803
vt 0.241463 0.501713
vt 0.251077 0.987746
vt 0.778096 0.970813
vt 0.239002 0.499894
vt 0.253668 0.989910
vt 0.781207 0.973928
vt 0.334209 0.986399
vt 0.874773 0.973944
vt 0.331557 0.989910
vt 0.878918 0.966849
vt 0.337156 0.989910
vt 0.881501 0.970554
vt 0.418531 0.987587
vt 0.621360 0.502489
vt 0.977242 0.855703
vt 0.416840 0.989910
vt 0.623908 0.499884
vt 0.979273 0.850040
vt 0.241463 0.004642
vt 0.437662 0.606685
vt 0.238242 0.976643
vt 0.238220 0.002352
vt 0.251077 0.425729
vt 0.241484 0.974375
vt 0.440739 0.606689
vt 0.254314 0.425772
vt 0.516837 0.530539
vt 0.331988 0.491510
vt 0.514776 0.536591
vt 0.334260 0.497080
vt 0.519417 0.532197
vt 0.336857 0.495631
vt 0.597272 0.455553
vt 0.612393 0.005410
vt 0.416719 0.563219
vt 0.595537 0.460125
vt 0.621381 0.973565
vt 0.418531 0.567489
vt 0.615342 0.002342
vt 0.624331 0.976634
vt 0.082549 0.004722
vt 0.079476 0.976651
vt 0.079455 0.002359
vt 0.082559 0.974262
vt 0.085822 0.002359
vt 0.085843 0.976650
vt 0.755418 0.004958
vt 0.003088 0.004985
vt 0.761554 0.976627
vt 0.752565 0.002336
vt 0.003110 0.974034
vt 0.764406 0.974008
vt 0.005945 0.002362
vt 0.005967 0.976654
vt 0.675985 0.006834
vt 0.681680 0.976631
vt 0.672692 0.002339
vt 0.684978 0.972174
vt 0.678933 0.002339
vt 0.687922 0.976631
vt 0.239024 0.479101
vt 0.774896 0.272109
vt 0.439300 0.003072
vt 0.241485 0.477281
vt 0.778248 0.268770
vt 0.441769 0.000765
vt 0.883213 0.276669
vt 0.515809 0.001275
vt 0.878780 0.269016
vt 0.518332 0.005072
vt 0.886012 0.272678
vt 0.521141 0.001312
vt 0.990737 0.402417
vt 0.614938 0.479092
vt 0.596912 0.001834
vt 0.988592 0.396388
vt 0.612415 0.476515
vt 0.598496 0.004312
vt 0.082569 0.475914
vt 0.774384 0.481573
vt 0.085029 0.479108
vt 0.080107 0.479109
vt 0.777723 0.484929
vt 0.003110 0.476491
vt 0.755440 0.476464
vt 0.878548 0.485175
vt 0.005982 0.479112
vt 0.882469 0.479790
vt 0.752567 0.479085
vt 0.886363 0.485194
vt 0.675981 0.475112
vt 0.987182 0.485441
vt 0.678446 0.479089
vt 0.673491 0.479089
vt 0.990543 0.482062
vt 0.082546 0.499901
vt 0.778128 0.772770
vt 0.878707 0.772787
vt 0.003088 0.499904
vt 0.764385 0.499878
vt 0.684926 0.499881
vt 0.979286 0.772803
vt 0.241463 0.499894
vt 0.778095 0.973928
vt 0.251077 0.989910
vt 0.878674 0.973944
vt 0.334804 0.989910
vt 0.418531 0.989910
vt 0.979273 0.853266
vt 0.621360 0.499884
vt 0.241485 0.976643
vt 0.251077 0.423033
vt 0.437654 0.609610
vt 0.241463 0.002352
vt 0.334804 0.493893
vt 0.517459 0.534050
vt 0.418531 0.564752
vt 0.621382 0.976634
vt 0.612393 0.002342
vt 0.597264 0.458491
vt 0.082568 0.976651
vt 0.082546 0.002359
vt 0.764406 0.976627
vt 0.003110 0.976654
vt 0.003088 0.002362
vt 0.755418 0.002336
vt 0.684948 0.976631
vt 0.675960 0.002339
vt 0.241485 0.479101
vt 0.439306 0.000748
vt 0.774904 0.268762
vt 0.518904 0.001296
vt 0.882983 0.269026
vt 0.990746 0.398985
vt 0.598503 0.001845
vt 0.612415 0.479092
vt 0.082568 0.479109
vt 0.774375 0.484921
vt 0.882455 0.485185
vt 0.755440 0.479085
vt 0.003110 0.479112
vt 0.675981 0.479089
vt 0.990534 0.485449
vn -0.016227 -0.999866 0.001947
vn -0.372110 -0.928188 0.001096
vn -0.370569 -0.928803 -0.001702
vn -0.044202 -0.999023 -0.000044
vn -0.921183 -0.389127 0.001168
vn -0.999969 -0.007637 0.001837
vn -0.999982 -0.005721 -0.001826
vn -0.920923 -0.389744 -0.001116
vn -0.015358 -0.007489 0.999854
vn -0.009636 -0.381590 0.924282
vn 0.000000 -0.382683 0.923880
vn 0.000000 -0.007577 0.999971
vn -0.009636 -0.924281 0.381590
vn 0.000000 -0.999998 0.001986
vn 0.000000 -0.923880 0.382683
vn -0.924086 -0.004706 0.382155
vn -0.924086 0.004706 0.382155
vn -0.999970 0.007567 0.001838
vn -0.382155 -0.004706 0.924087
vn -0.015360 0.007445 0.999854
vn -0.382155 0.004707 0.924086
vn 0.000000 -0.999997 0.002271
vn -0.000000 -0.999998 0.002117
vn 0.000000 -1.000000 0.000000
vn 0.000000 -1.000000 0.000000
vn 0.000000 -1.000000 0.000000
vn -0.000000 -0.010982 0.999940
vn -0.000000 -0.382683 0.923880
vn 0.009626 -0.381592 0.924281
vn 0.008746 -0.011171 0.999899
vn 0.000000 -0.923879 0.382684
vn 0.014177 -0.999897 0.002253
vn 0.009622 -0.924279 0.381596
vn -0.000000 -0.007666 0.999971
vn 0.009284 0.009241 0.999914
vn 0.000169 0.007529 0.999972
vn 0.036206 0.030150 0.998889
vn 0.999800 -0.019815 0.002636
vn 0.921314 -0.388818 0.001560
vn 0.920730 -0.390188 0.003253
vn 0.999705 -0.024152 0.002403
vn 0.378183 -0.925730 0.001522
vn 0.005195 -0.999987 0.000029
vn 0.377912 -0.925841 0.000484
vn 0.398884 -0.013124 0.916908
vn 0.403633 0.003983 0.914912
vn 0.009775 0.004859 0.999940
vn 0.917139 -0.010024 0.398442
vn 0.999958 0.008720 0.002733
vn 0.916737 0.006569 0.399438
vn -0.921049 0.389446 0.001227
vn -0.920786 0.390067 -0.001076
vn -0.999982 0.005670 -0.001813
vn -0.371816 0.928306 0.001152
vn -0.016069 0.999869 0.001944
vn -0.043804 0.999040 -0.000040
vn -0.370254 0.928929 -0.001682
vn -0.009819 0.923737 0.382903
vn 0.010409 0.922737 0.385290
vn 0.007724 0.999968 0.002039
vn -0.009708 0.379685 0.925065
vn 0.004915 0.379622 0.925129
vn 0.433983 0.900918 0.002296
vn 0.347035 0.937852 0.000999
vn 0.002799 0.999996 0.000015
vn 0.764771 0.644300 0.001560
vn 0.759599 0.650385 0.003026
vn 0.707471 0.590014 0.389061
vn 0.710135 0.586932 0.388869
vn 0.770637 0.637270 0.002439
vn 0.302177 0.250008 0.919883
vn 0.300382 0.247511 0.921145
vn 0.939096 0.343648 0.002087
vn 0.928029 0.372503 0.002024
vn 0.769094 0.639135 0.001039
vn 0.999951 0.009590 0.002431
vn -0.001822 0.005761 -0.999982
vn -0.001095 0.387902 -0.921700
vn 0.001178 0.387302 -0.921952
vn 0.001838 0.007597 -0.999969
vn -0.001647 0.927379 -0.374120
vn -0.000042 0.999015 -0.044365
vn 0.001953 0.999866 -0.016274
vn 0.001131 0.926778 -0.375608
vn -0.922485 -0.000133 -0.386033
vn -0.922481 -0.009344 -0.385930
vn -0.379165 0.009021 -0.925285
vn -0.001808 -0.005760 -0.999982
vn -0.379375 -0.009085 -0.925199
vn -0.011611 0.999862 -0.011921
vn 0.002465 0.999994 0.002470
vn 0.000013 0.999996 0.002914
vn 0.000891 0.939758 0.341840
vn 0.002181 0.905782 0.423737
vn 0.002044 0.999968 0.007731
vn 0.003054 0.650946 0.759118
vn 0.001558 0.644617 0.764504
vn 0.454852 0.767376 0.451934
vn 0.459968 0.760940 0.457602
vn 0.001046 0.639149 0.769082
vn 0.002044 0.372017 0.928224
vn 0.002079 0.342651 0.939461
vn 0.002435 0.637277 0.770631
vn 0.002420 0.009455 0.999952
vn 0.002732 0.008574 0.999960
vn 0.381103 0.011770 0.924458
vn 0.380916 -0.029217 0.924148
vn 0.002405 -0.024116 0.999706
vn 0.923156 0.011800 0.384246
vn 0.922814 -0.028794 0.384167
vn -0.000044 -0.999031 -0.044015
vn -0.001716 -0.927442 -0.373964
vn 0.001132 -0.926820 -0.375503
vn 0.001946 -0.999867 -0.016212
vn -0.001139 -0.387679 -0.921794
vn 0.001838 -0.007591 -0.999969
vn 0.001179 -0.387065 -0.922052
vn -0.012512 -0.999850 -0.011942
vn 0.000000 -1.000000 0.000000
vn 0.000000 -1.000000 0.000000
vn 0.000000 -1.000000 0.000000
vn 0.000000 -1.000000 0.000000
vn 0.002116 -0.999998 -0.000000
vn 0.002273 -0.999997 0.000000
vn 0.001982 -0.999998 0.000000
vn 0.000000 -1.000000 0.000000
vn 0.004693 -0.999978 0.004679
vn 0.000029 -0.999987 0.005195
vn 0.003262 -0.388064 0.921627
vn 0.001535 -0.386695 0.922206
vn 0.002635 -0.019770 0.999801
vn 0.000475 -0.925207 0.379463
vn 0.002254 -0.999896 0.014257
vn 0.001510 -0.925097 0.379729
vn 0.382156 0.004707 -0.924086
vn 0.382157 -0.004706 -0.924086
vn 0.924087 0.004707 -0.382154
vn 0.999854 0.007463 -0.015364
vn 0.999854 -0.007490 -0.015361
vn 0.924087 -0.004706 -0.382154
vn 0.925161 0.379455 -0.009572
vn 0.925232 0.379370 0.005007
vn 0.999972 0.007546 0.000171
vn 0.383143 0.923638 -0.009695
vn 0.385559 0.922624 0.010464
vn 0.999914 0.009276 0.009234
vn 0.999971 -0.007656 0.000000
vn 0.999971 -0.007579 0.000000
vn 0.998910 0.029885 0.035872
vn 0.999940 -0.010981 0.000000
vn 0.921081 0.248389 0.299856
vn 0.922407 0.245678 0.298006
vn 0.999941 0.004836 0.009727
vn 0.391570 0.589456 0.706551
vn 0.391450 0.586388 0.709166
vn 0.916247 0.003749 0.400596
vn 0.918125 -0.013300 0.396067
vn 0.999900 -0.011174 0.008671
vn 0.402085 0.006151 0.915582
vn 0.400865 -0.010339 0.916079
vn 0.381593 -0.924280 -0.009636
vn 0.382686 -0.923878 0.000000
vn 0.924280 -0.381593 -0.009636
vn 0.923878 -0.382688 0.000000
vn 0.382686 -0.923878 0.000000
vn 0.381597 -0.924279 0.009624
vn 0.923876 -0.382693 0.000000
vn 0.924276 -0.381603 0.009629
vn -0.887923 -0.325257 0.325270
vn -0.325283 -0.887917 0.325260
vn -0.325286 -0.325251 0.887919
vn -0.000000 -0.923879 0.382684
vn -0.000000 -0.382683 0.923880
vn 0.324973 -0.887953 0.325472
vn 0.888079 -0.324943 0.325158
vn 0.325063 -0.325345 0.887967
vn -0.325316 0.887906 0.325258
vn -0.887912 0.325292 0.325264
vn -0.325311 0.325283 0.887899
vn 0.475558 0.784851 0.397308
vn 0.206963 0.320631 0.924317
vn 0.869258 0.314664 0.381284
vn 0.503416 0.182185 0.844619
vn -0.184755 0.964343 -0.189493
vn -0.324172 0.494417 -0.806514
vn -0.795234 0.501545 -0.340669
vn -0.795234 0.501545 -0.340669
vn 0.205144 0.957222 0.204062
vn 0.343714 0.447873 0.825391
vn 0.827124 0.446874 0.340838
vn -0.335365 -0.495779 -0.801083
vn -0.190668 -0.964236 -0.184104
vn -0.801435 -0.498873 -0.329891
vn 0.000000 -1.000000 0.000000
vn 0.195751 -0.960941 0.195638
vn 0.334975 -0.482330 0.809413
vn 0.807858 -0.484464 0.335648
vn 0.887922 0.325258 -0.325271
vn 0.325245 0.325293 -0.887919
vn 0.325237 0.887928 -0.325276
vn 0.924821 0.320353 0.205132
vn 0.398470 0.785806 0.473001
vn 0.386705 0.313902 0.867136
vn 0.849233 0.179699 0.496499
vn 0.325274 -0.887912 -0.325283
vn 0.325267 -0.325257 -0.887924
vn 0.887920 -0.325254 -0.325280
vn 0.382683 -0.923880 0.000000
vn 0.923876 -0.382692 0.000000
vn 0.325113 -0.325016 0.888069
vn 0.325430 -0.887950 0.325025
vn 0.887940 -0.325376 0.325106
s 1
g OutsideCorner_HP
usemtl initialShadingGroup
f 2/1/1 1/65/2 69/125/3 68/47/4
s 2
f 1/65/5 6/49/6 70/13/7 69/125/8
s 3
f 4/2/9 3/66/10 13/76/11 12/41/12
s 1
f 3/67/13 2/1/1 14/3/14 13/75/15
s 2
f 6/49/6 5/68/16 23/85/17 22/50/18
s 3
f 5/69/19 4/2/9 24/8/20 23/84/21
s 1
f 8/4/22 7/70/23 77/133/24 76/48/25
f 7/71/23 14/3/14 78/22/26 77/132/24
s 3
f 10/5/27 9/72/28 19/81/29 18/42/30
s 1
f 9/73/31 8/4/22 20/6/32 19/80/33
s 3
f 12/41/12 11/74/34 31/91/35 30/9/36
f 11/74/34 10/5/27 32/10/37 31/91/35
s 6
f 16/7/38 15/77/39 85/139/40 84/20/41
s 1
f 15/77/42 20/6/32 86/25/43 85/139/44
s 3
f 18/42/30 17/78/45 39/99/46 38/11/47
s 6
f 17/79/48 16/7/38 40/12/49 39/98/50
s 2
f 22/50/18 21/82/51 45/105/52 44/51/53
s 6
f 21/83/54 26/43/55 46/15/56 45/104/57
f 26/43/55 25/86/58 29/90/59 28/44/60
s 3
f 25/87/61 24/8/20 30/9/36 29/89/62
s 6
f 28/44/60 27/88/63 53/111/64 52/16/65
f 27/88/63 34/45/66 54/17/67 53/111/64
f 34/45/66 33/92/68 37/97/69 36/46/70
s 3
f 33/93/71 32/10/37 38/11/47 37/96/72
s 6
f 36/46/70 35/94/73 61/119/74 60/18/75
f 35/95/73 40/12/49 62/19/76 61/118/74
s 8
f 42/14/77 41/100/78 91/145/79 90/64/80
s 6
f 41/101/81 48/52/82 92/29/83 91/144/84
s 2
f 44/51/53 43/102/85 71/127/86 70/13/7
s 8
f 43/103/87 42/14/77 72/21/88 71/126/89
s 6
f 48/52/82 47/106/90 51/110/91 50/53/92
f 47/107/90 46/15/56 52/16/65 51/109/91
f 50/53/92 49/108/93 99/151/94 98/30/95
f 49/108/93 56/54/96 100/31/97 99/151/94
f 56/54/96 55/112/98 59/117/99 58/55/100
f 55/113/98 54/17/67 60/18/75 59/116/99
f 58/55/100 57/114/101 107/159/102 106/32/103
f 57/115/101 64/63/104 108/33/105 107/158/102
f 64/63/104 63/120/106 83/138/107 82/62/108
f 63/121/109 62/19/76 84/20/41 83/137/110
s 1
f 66/23/111 65/122/112 109/160/113 114/60/114
s 8
f 65/122/115 72/21/88 110/28/116 109/160/117
s 1
f 68/47/4 67/123/118 79/135/119 78/22/26
f 67/124/118 66/23/111 80/24/120 79/134/119
f 74/26/121 73/128/122 115/166/123 122/61/124
f 73/129/122 80/24/120 116/35/125 115/165/123
f 76/48/25 75/130/126 87/141/127 86/25/43
f 75/131/126 74/26/121 88/27/128 87/140/127
s 6
f 82/62/108 81/136/129 123/172/130 128/34/131
s 1
f 81/136/132 88/27/128 124/38/133 123/172/134
s 8
f 90/64/80 89/142/135 111/162/136 110/28/116
s 12
f 89/143/137 94/56/138 112/36/139 111/161/140
f 94/56/138 93/146/141 97/150/142 96/57/143
s 6
f 93/147/144 92/29/83 98/30/95 97/149/145
s 12
f 96/57/143 95/148/146 119/169/147 118/37/148
f 95/148/146 102/58/149 120/39/150 119/169/147
f 102/58/149 101/152/151 105/157/152 104/59/153
s 6
f 101/153/154 100/31/97 106/32/103 105/156/155
s 12
f 104/59/153 103/154/156 127/176/157 126/40/158
s 6
f 103/155/159 108/33/105 128/34/131 127/175/160
s 1
f 114/60/114 113/163/161 117/168/162 116/35/125
s 12
f 113/164/163 112/36/139 118/37/148 117/167/164
s 1
f 122/61/124 121/170/165 125/174/166 124/38/133
s 12
f 121/171/167 120/39/150 126/40/158 125/173/168
s 3
f 4/2/9 12/41/12 30/9/36 24/8/20
f 10/5/27 18/42/30 38/11/47 32/10/37
s 6
f 26/43/55 28/44/60 52/16/65 46/15/56
f 34/45/66 36/46/70 60/18/75 54/17/67
s 1
f 68/47/4 78/22/26 14/3/14 2/1/1
f 76/48/25 86/25/43 20/6/32 8/4/22
s 6
f 16/7/38 84/20/41 62/19/76 40/12/49
s 2
f 70/13/7 6/49/6 22/50/18 44/51/53
s 6
f 48/52/82 50/53/92 98/30/95 92/29/83
f 56/54/96 58/55/100 106/32/103 100/31/97
s 12
f 94/56/138 96/57/143 118/37/148 112/36/139
f 102/58/149 104/59/153 126/40/158 120/39/150
s 1
f 114/60/114 116/35/125 80/24/120 66/23/111
f 122/61/124 124/38/133 88/27/128 74/26/121
s 6
f 82/62/108 128/34/131 108/33/105 64/63/104
s 8
f 110/28/116 72/21/88 42/14/77 90/64/80
s 2
f 5/68/16 6/49/6 1/65/5 129/177/169
s 1
f 1/65/2 2/1/1 3/67/13 129/177/170
s 3
f 3/66/10 4/2/9 5/69/19 129/178/171
s 1
f 13/75/15 14/3/14 7/71/23 130/180/172
f 7/70/23 8/4/22 9/73/31 130/181/172
s 3
f 9/72/28 10/5/27 11/74/34 130/179/173
f 11/74/34 12/41/12 13/76/11 130/179/173
s 1
f 19/80/33 20/6/32 15/77/42 131/182/174
s 6
f 15/77/39 16/7/38 17/79/48 131/182/175
s 3
f 17/78/45 18/42/30 19/81/29 131/183/176
s 6
f 25/86/58 26/43/55 21/83/54 132/186/177
s 2
f 21/82/51 22/50/18 23/85/17 132/184/178
s 3
f 23/84/21 24/8/20 25/87/61 132/185/179
s 6
f 33/92/68 34/45/66 27/88/63 133/188/180
f 27/88/63 28/44/60 29/90/59 133/188/180
s 3
f 29/89/62 30/9/36 31/91/35 133/187/181
f 31/91/35 32/10/37 33/93/71 133/187/181
s 6
f 39/98/50 40/12/49 35/95/73 134/191/182
f 35/94/73 36/46/70 37/97/69 134/189/182
s 3
f 37/96/72 38/11/47 39/99/46 134/190/183
s 6
f 47/106/90 48/52/82 41/101/81 135/194/184
s 8
f 41/100/78 42/14/77 43/103/87 135/195/185
s 2
f 43/102/186 44/51/53 45/105/52 135/192/187
s 6
f 45/104/57 46/15/56 47/107/90 135/193/184
f 55/112/98 56/54/96 49/108/93 136/197/188
f 49/108/93 50/53/92 51/110/91 136/197/188
f 51/109/91 52/16/65 53/111/64 136/196/188
f 53/111/64 54/17/67 55/113/98 136/196/188
f 63/120/106 64/63/104 57/115/101 137/200/189
f 57/114/101 58/55/100 59/117/99 137/201/189
f 59/116/99 60/18/75 61/119/74 137/198/190
f 61/118/74 62/19/76 63/121/109 137/199/190
s 8
f 71/126/89 72/21/88 65/122/115 138/203/191
s 1
f 65/122/112 66/23/111 67/124/118 138/203/192
f 67/123/118 68/47/4 69/125/3 138/202/192
s 2
f 69/125/8 70/13/7 71/127/86 138/202/193
s 1
f 79/134/119 80/24/120 73/129/122 139/206/194
f 73/128/122 74/26/121 75/131/126 139/207/194
f 75/130/126 76/48/25 77/133/24 139/204/194
f 77/132/24 78/22/26 79/135/119 139/205/194
f 87/140/127 88/27/128 81/136/132 140/209/195
s 6
f 81/136/129 82/62/108 83/138/107 140/209/196
f 83/137/110 84/20/41 85/139/40 140/208/197
s 1
f 85/139/44 86/25/43 87/141/127 140/208/195
s 12
f 93/146/141 94/56/138 89/143/137 141/212/198
s 8
f 89/142/135 90/64/80 91/145/79 141/210/199
s 6
f 91/144/84 92/29/83 93/147/144 141/211/200
s 12
f 101/152/151 102/58/149 95/148/146 142/214/201
f 95/148/146 96/57/143 97/150/142 142/214/201
s 6
f 97/149/145 98/30/95 99/151/94 142/213/202
f 99/151/94 100/31/97 101/153/154 142/213/202
f 107/158/102 108/33/105 103/155/159 143/217/203
s 12
f 103/154/156 104/59/153 105/157/152 143/215/204
s 6
f 105/156/155 106/32/103 107/159/102 143/216/203
s 1
f 113/163/161 114/60/114 109/160/113 144/218/205
s 8
f 109/160/117 110/28/116 111/162/136 144/218/206
s 12
f 111/161/140 112/36/139 113/164/163 144/219/207
s 1
f 121/170/165 122/61/124 115/166/123 145/221/208
f 115/165/123 116/35/125 117/168/162 145/222/208
s 12
f 117/167/164 118/37/148 119/169/147 145/220/209
f 119/169/147 120/39/150 121/171/167 145/220/209
s 6
f 127/175/160 128/34/131 123/172/130 146/223/210
s 1
f 123/172/134 124/38/133 125/174/166 146/223/211
s 12
f 125/173/168 126/40/158 127/176/157 146/224/212
