# This file uses centimeters as units for non-parametric coordinates.

mtllib Table_LP.mtl
g default
v -3.086048 1.943374 0.454533
v -5.955936 1.943374 0.454533
v -3.086048 1.892009 0.454533
v -5.955936 1.892009 0.454533
v -3.086048 1.892009 -4.212376
v -5.955936 1.892009 -4.212376
v -3.086048 1.943374 -4.212376
v -5.955936 1.943374 -4.212376
v -3.156587 1.892009 0.365402
v -5.885398 1.892009 0.365402
v -5.885398 1.892009 -4.123244
v -3.156587 1.892009 -4.123244
v -3.156587 1.892009 0.365402
v -5.885398 1.892009 0.365402
v -5.885398 1.892009 -4.123244
v -3.156587 1.892009 -4.123244
v -3.244758 1.892009 0.253987
v -5.797226 1.892009 0.253987
v -5.797226 1.892009 -4.011830
v -3.244758 1.892009 -4.011830
v -3.156587 1.788966 0.365402
v -5.885398 1.788966 0.365402
v -5.797226 1.788966 0.253987
v -3.244758 1.788966 0.253987
v -5.885398 1.788966 -4.123244
v -5.797226 1.788966 -4.011830
v -3.156587 1.788966 -4.123244
v -3.244758 1.788966 -4.011830
v -3.156587 1.788966 -4.006076
v -3.244758 1.788966 -4.123244
v -5.797226 1.788966 -4.123244
v -5.885398 1.788966 -4.011831
v -5.797226 1.788966 0.365402
v -5.885398 1.788966 0.253987
v -3.156587 1.788966 0.253987
v -3.244758 1.788966 0.365402
v -5.797226 0.003569 0.253986
v -5.797226 0.003569 0.365401
v -5.885398 0.003569 0.365401
v -5.885398 0.003569 0.253986
v -5.797226 0.003569 -4.011830
v -5.885398 0.003569 -4.011831
v -5.885398 0.003569 -4.123244
v -5.797226 0.003569 -4.123244
v -3.244758 0.003569 -4.011830
v -3.244758 0.003569 -4.123244
v -3.156587 0.003569 -4.123244
v -3.156587 0.003569 -4.006076
v -3.244758 0.003569 0.253986
v -3.156587 0.003569 0.253986
v -3.156587 0.003569 0.365401
v -3.244758 0.003569 0.365401
vt 0.925865 0.015209
vt 0.459134 0.281626
vt 0.931931 0.015210
vt 0.969220 0.257407
vt 0.066742 0.246517
vt 0.066520 0.025297
vt 0.435330 0.025665
vt 0.435648 0.246921
vt 0.930283 0.414087
vt 0.967907 0.014378
vt 0.936267 0.414090
vt 0.060228 0.526871
vt 0.577628 0.221566
vt 0.474859 0.019757
vt 0.690696 0.280742
vt 0.875279 0.019763
vt 0.577623 0.221572
vt 0.474845 0.019752
vt 0.690705 0.280747
vt 0.875294 0.019759
vt 0.291779 0.745733
vt 0.298512 0.738999
vt 0.303841 0.744327
vt 0.297108 0.751061
vt 0.130146 0.861619
vt 0.135475 0.856290
vt 0.142208 0.863023
vt 0.136879 0.868352
vt 0.461259 0.851599
vt 0.454733 0.858533
vt 0.449245 0.853369
vt 0.456109 0.846076
vt 0.612150 0.747983
vt 0.617479 0.753312
vt 0.610747 0.760046
vt 0.605417 0.754718
vt 0.411756 0.852217
vt 0.406402 0.631084
vt 0.497502 0.646828
vt 0.502857 0.867961
vt 0.720040 0.640068
vt 0.183864 0.637843
vt 0.250110 0.970927
vt 0.243378 0.748389
vt 0.189218 0.858976
vt 0.022246 0.753713
vt 0.338122 0.748786
vt 0.350151 0.969657
vt 0.028976 0.976254
vt 0.572383 0.956181
vt 0.725394 0.861202
vt 0.567705 0.741998
vt 0.060255 0.281583
vt 0.964787 0.012120
vt 0.972304 0.259666
vt 0.459107 0.526914
vt 0.967914 0.259666
vt 0.931877 0.414089
vt 0.969177 0.012119
vt 0.930255 0.015209
vt 0.972297 0.014378
vt 0.925893 0.414087
vt 0.936321 0.015211
vt 0.964830 0.257408
vt 0.470870 0.033677
vt 0.567257 0.222468
vt 0.483905 0.009505
vt 0.863985 0.009492
vt 0.577045 0.232755
vt 0.684852 0.289124
vt 0.574233 0.231284
vt 0.572856 0.228661
vt 0.697808 0.288073
vt 0.692409 0.290751
vt 0.703772 0.279644
vt 0.876424 0.035695
vt 0.874438 0.009492
vt 0.882629 0.028922
vt 0.467544 0.027156
vt 0.473396 0.009989
vt 0.061325 0.253200
vt 0.051588 0.253509
vt 0.061130 0.260905
vt 0.060602 0.019046
vt 0.060811 0.011333
vt 0.050854 0.019166
vt 0.440756 0.018992
vt 0.440959 0.011287
vt 0.450486 0.018727
vt 0.441493 0.253216
vt 0.451245 0.252910
vt 0.440780 0.260930
vt 0.487195 0.511131
vt 0.851793 0.511105
vt 0.851777 0.292946
vt 0.487179 0.292973
vt 0.976837 0.251376
vt 0.936285 0.022826
vt 0.936311 0.406469
vt 0.960296 0.253638
vt 0.960289 0.020407
vt 0.925849 0.406470
vt 0.925901 0.022828
vt 0.976796 0.018146
vt 0.497527 0.862633
vt 0.718662 0.867936
vt 0.725369 0.645397
vt 0.504235 0.640093
vt 0.344985 0.741494
vt 0.344663 0.964492
vt 0.565856 0.963116
vt 0.572856 0.747521
vt 0.244781 0.976256
vt 0.250112 0.755122
vt 0.027575 0.748385
vt 0.022242 0.969520
vt 0.405024 0.858951
vt 0.411731 0.636412
vt 0.190597 0.631109
vt 0.183889 0.853648
vn 0.000000 0.000000 1.000000
vn 0.000000 0.000000 1.000000
vn 0.000000 0.000000 1.000000
vn 0.000000 0.000000 1.000000
vn 0.000000 -1.000000 0.000000
vn 0.000000 -1.000000 0.000000
vn 0.000000 -1.000000 0.000000
vn 0.000000 -1.000000 0.000000
vn 0.000000 0.000000 -1.000000
vn 0.000000 0.000000 -1.000000
vn 0.000000 0.000000 -1.000000
vn 0.000000 0.000000 -1.000000
vn 0.000000 1.000000 0.000000
vn 0.000000 1.000000 0.000000
vn 0.000000 1.000000 0.000000
vn 0.000000 1.000000 0.000000
vn -1.000000 0.000000 0.000000
vn -1.000000 0.000000 0.000000
vn -1.000000 0.000000 0.000000
vn -1.000000 0.000000 0.000000
vn 1.000000 0.000000 0.000000
vn 1.000000 0.000000 0.000000
vn 1.000000 0.000000 0.000000
vn 1.000000 0.000000 0.000000
vn 0.000000 -1.000000 0.000000
vn 0.000000 -1.000000 0.000000
vn 0.000000 -1.000000 0.000000
vn 0.000000 -1.000000 0.000000
vn 0.000000 -1.000000 0.000000
vn 0.000000 -1.000000 0.000000
vn 0.000000 -1.000000 0.000000
vn 0.000000 -1.000000 0.000000
vn 0.000000 0.000000 0.000000
vn 0.000000 0.000000 0.000000
vn 0.000000 0.000000 0.000000
vn 0.000000 0.000000 0.000000
vn 0.000000 0.000000 0.000000
vn 0.000000 0.000000 0.000000
vn 0.000000 0.000000 0.000000
vn 0.000000 0.000000 0.000000
vn 0.000000 0.000000 0.000000
vn 0.000000 0.000000 0.000000
vn 0.000000 0.000000 0.000000
vn 0.000000 0.000000 0.000000
vn 0.000000 0.000000 0.000000
vn 0.000000 0.000000 0.000000
vn 0.000000 0.000000 0.000000
vn 0.000000 0.000000 0.000000
vn 0.000000 -1.000000 0.000000
vn 0.000000 -1.000000 0.000000
vn 0.000000 -1.000000 0.000000
vn 0.000000 -1.000000 0.000000
vn 0.000000 -1.000000 0.000000
vn 0.000000 -1.000000 0.000000
vn 0.000000 -1.000000 0.000000
vn 0.000000 -1.000000 0.000000
vn 0.000000 -1.000000 0.000000
vn 0.000000 -1.000000 0.000000
vn 0.000000 -1.000000 0.000000
vn 0.000000 -1.000000 0.000000
vn 0.000000 -1.000000 0.000000
vn 0.000000 -1.000000 0.000000
vn 0.000000 -1.000000 0.000000
vn 0.000000 -1.000000 0.000000
vn 0.000000 0.000000 1.000000
vn 0.000000 0.000000 1.000000
vn 0.000000 -0.000000 1.000000
vn 0.000000 -0.000000 1.000000
vn 0.000000 -0.000000 1.000000
vn 0.000000 -0.000000 1.000000
vn 0.000000 0.000000 -1.000000
vn 0.000000 0.000000 -1.000000
vn 0.000000 0.000000 -1.000000
vn 0.000000 0.000000 -1.000000
vn -1.000000 -0.000003 0.000000
vn -1.000000 -0.000003 0.000000
vn -1.000000 -0.000002 0.000000
vn -1.000000 -0.000003 0.000000
vn -1.000000 -0.000003 0.000000
vn -1.000000 -0.000002 0.000000
vn 1.000000 0.000000 0.000000
vn 1.000000 0.000000 0.000000
vn 1.000000 0.000000 0.000000
vn 1.000000 0.000000 0.000000
vn 0.000000 0.000000 -1.000000
vn 0.000000 0.000000 -1.000000
vn 0.000000 0.000000 -1.000000
vn 0.000000 0.000000 -1.000000
vn 0.000000 0.000000 -1.000000
vn 0.000000 0.000000 -1.000000
vn 0.000000 0.000000 1.000000
vn 0.000000 0.000000 1.000000
vn 0.000000 0.000000 1.000000
vn 0.000000 0.000000 1.000000
vn 1.000000 0.000001 0.000000
vn 1.000000 0.000001 0.000000
vn 1.000000 0.000000 0.000000
vn 1.000000 0.000001 0.000000
vn 1.000000 0.000001 0.000000
vn 1.000000 0.000000 0.000000
vn -1.000000 0.000000 0.000000
vn -1.000000 0.000000 0.000000
vn -1.000000 0.000000 0.000000
vn -1.000000 0.000000 0.000000
vn 0.000000 -1.000000 0.000000
vn 0.000000 -1.000000 0.000000
vn 0.000000 -1.000000 0.000000
vn 0.000000 -1.000000 0.000000
vn 0.000000 -1.000000 0.000000
vn 0.000000 -1.000000 0.000000
vn 0.000000 -1.000000 0.000000
vn 0.000000 -1.000000 0.000000
vn 0.000000 -1.000000 0.000000
vn 0.000000 -1.000000 0.000000
vn 0.000000 -1.000000 0.000000
vn 0.000000 -1.000000 0.000000
vn 0.000000 -1.000000 0.000000
vn 0.000000 -1.000000 0.000000
vn 0.000000 -1.000000 0.000000
vn 0.000000 -1.000000 0.000000
vn 1.000000 0.000000 0.000000
vn 1.000000 0.000000 0.000000
vn 1.000000 0.000000 0.000000
vn 1.000000 0.000000 0.000000
vn 0.000000 -0.000000 1.000000
vn 0.000000 -0.000000 1.000000
vn -1.000000 0.000000 0.000000
vn -1.000000 0.000000 0.000000
vn 0.000000 0.000001 -1.000000
vn 0.000000 0.000001 -1.000000
vn 0.000000 0.000001 -1.000000
vn 0.000000 0.000001 -1.000000
vn -0.000015 0.000000 1.000000
vn -0.000015 0.000000 1.000000
vn -0.000015 0.000000 1.000000
vn -0.000015 0.000000 1.000000
vn -1.000000 0.000000 0.000000
vn -1.000000 0.000000 0.000000
vn 0.000000 0.000000 -1.000000
vn 0.000000 0.000000 -1.000000
vn 1.000000 0.000000 0.000000
vn 1.000000 0.000000 0.000000
vn 1.000000 0.000000 0.000000
vn 1.000000 0.000000 0.000000
vn -1.000000 0.000000 0.000000
vn -1.000000 0.000000 0.000000
vn -1.000000 0.000000 0.000000
vn -1.000000 0.000000 0.000000
vn 0.000000 0.000000 -1.000000
vn 0.000000 0.000000 -1.000000
vn 1.000000 0.000000 0.000000
vn 1.000000 0.000000 0.000000
vn -0.065117 0.000000 0.997878
vn -0.065117 0.000000 0.997878
vn -0.065117 0.000000 0.997878
vn -0.065117 0.000000 0.997878
vn 0.000000 0.000001 -1.000000
vn 0.000000 0.000001 -1.000000
vn 0.000000 0.000001 -1.000000
vn 0.000000 0.000001 -1.000000
vn 1.000000 -0.000000 0.000000
vn 1.000000 -0.000000 0.000000
vn 0.000000 -0.000000 1.000000
vn 0.000000 -0.000000 1.000000
vn -1.000000 -0.000000 0.000000
vn -1.000000 -0.000000 0.000000
vn -1.000000 -0.000000 0.000000
vn -1.000000 -0.000000 0.000000
s off
g Desk
usemtl initialShadingGroup
f 1/64/1 2/54/2 4/59/3 3/4/4
f 17/93/5 18/96/6 19/95/7 20/94/8
f 5/57/9 6/10/10 8/61/11 7/55/12
f 7/12/13 8/53/14 2/2/15 1/56/16
f 2/63/17 8/11/18 6/58/19 4/3/20
f 7/62/21 1/1/22 3/60/23 5/9/24
s 1
f 3/4/25 4/59/26 10/104/27 9/97/28
f 4/3/26 6/58/29 11/102/30 10/103/27
f 6/10/29 5/57/31 12/100/32 11/101/30
f 5/9/31 3/60/25 9/98/28 12/99/32
s off
f 9/14/33 10/13/34 14/17/35 13/18/36
f 10/13/37 11/15/38 15/19/39 14/17/40
f 11/15/41 12/16/42 16/20/43 15/19/44
f 12/16/45 9/14/46 13/18/47 16/20/48
f 37/21/49 38/22/50 39/23/51 40/24/52
f 41/25/53 42/26/54 43/27/55 44/28/56
f 45/29/57 46/30/58 47/31/59 48/32/60
f 49/33/61 50/34/62 51/35/63 52/36/64
s 2
f 13/18/65 14/17/66 22/72/67 33/66/68 36/65/69 21/79/70
s off
f 18/6/71 17/5/72 24/81/73 23/84/74
s 3
f 14/17/75 15/19/76 25/74/77 32/70/78 34/69/79 22/71/80
s off
f 19/7/81 18/6/82 23/84/83 26/87/84
s 4
f 15/19/85 16/20/86 27/78/87 30/76/88 31/75/89 25/73/90
s off
f 20/8/91 19/7/92 26/87/93 28/90/94
s 5
f 16/20/95 13/18/96 21/80/97 35/67/98 29/68/99 27/77/100
s off
f 17/5/101 20/8/102 28/90/103 24/81/104
f 26/87/105 31/89/106 30/91/107 28/90/108
f 23/84/109 34/85/110 32/88/111 26/87/112
f 24/81/113 36/82/114 33/86/115 23/84/116
f 28/90/117 29/92/118 35/83/119 24/81/120
f 23/42/121 33/119/122 38/22/123 37/21/124
s 2
f 33/38/68 22/118/67 39/23/125 38/22/126
s 3
f 22/37/80 34/117/79 40/24/127 39/23/128
s off
f 34/45/129 23/120/130 37/21/131 40/24/132
f 26/46/133 32/115/134 42/26/135 41/25/136
s 3
f 32/44/78 25/114/77 43/27/137 42/26/138
s 4
f 25/43/90 31/113/89 44/28/139 43/27/140
s off
f 31/49/141 26/116/142 41/25/143 44/28/144
f 28/50/145 30/111/146 46/30/147 45/29/148
s 4
f 30/48/88 27/110/87 47/31/149 46/30/150
s 5
f 27/47/100 29/109/99 48/32/151 47/31/152
s off
f 29/52/153 28/112/154 45/29/155 48/32/156
f 24/41/157 35/107/158 50/34/159 49/33/160
s 5
f 35/51/98 21/106/97 51/35/161 50/34/162
s 2
f 21/40/70 36/105/69 52/36/163 51/35/164
s off
f 36/39/165 24/108/166 49/33/167 52/36/168
