# This file uses centimeters as units for non-parametric coordinates.

mtllib Wall_LP.mtl
g default
v -1.000000 0.000000 0.000000
v -0.500000 0.000000 0.000000
v 0.000000 0.000000 0.000000
v -1.000000 1.000000 0.000000
v -0.500000 1.000000 0.000000
v 0.000000 0.400000 0.000000
v -1.000000 1.000000 -3.000000
v -0.500000 1.000000 -3.000000
v 0.000000 0.400000 -3.000000
v -1.000000 0.000000 -3.000000
v -0.500000 0.000000 -3.000000
v 0.000000 0.000000 -3.000000
vt 0.082546 0.002359
vt 0.003088 0.002362
vt 0.320921 0.002348
vt 0.241463 0.002352
vt 0.508605 0.002339
vt 0.445039 0.002342
vt 0.983050 0.249887
vt 0.983065 0.141807
vt 0.445061 0.479092
vt 0.588086 0.479085
vt 0.082568 0.479109
vt 0.508627 0.479089
vt 0.797494 0.001031
vt 0.797481 0.081494
vt 0.596337 0.000998
vt 0.596304 0.202155
vt 0.696882 0.202172
vt 0.696916 0.001014
vt 0.853339 0.357948
vt 0.766875 0.357936
vt 0.241485 0.479101
vt 0.766905 0.141777
vt 0.766890 0.249857
vt 0.320943 0.479098
vt 0.003110 0.479112
vt 0.588064 0.002336
vn 0.000000 0.000000 1.000000
vn 0.000000 0.000000 1.000000
vn 0.000000 0.000000 1.000000
vn 0.000000 0.000000 1.000000
vn 0.000000 0.000000 1.000000
vn 0.000000 0.000000 1.000000
vn 0.000000 1.000000 0.000000
vn 0.514496 0.857493 0.000000
vn 0.514496 0.857493 0.000000
vn 0.000000 1.000000 0.000000
vn 0.768221 0.640184 0.000000
vn 0.768221 0.640184 0.000000
vn 0.000000 0.000000 -1.000000
vn 0.000000 0.000000 -1.000000
vn 0.000000 0.000000 -1.000000
vn 0.000000 0.000000 -1.000000
vn 0.000000 0.000000 -1.000000
vn 0.000000 0.000000 -1.000000
vn 0.000000 -1.000000 0.000000
vn 0.000000 -1.000000 0.000000
vn 0.000000 -1.000000 0.000000
vn 0.000000 -1.000000 0.000000
vn 0.000000 -1.000000 0.000000
vn 0.000000 -1.000000 0.000000
vn 1.000000 0.000000 0.000000
vn 1.000000 0.000000 0.000000
vn 1.000000 0.000000 0.000000
vn 1.000000 0.000000 0.000000
vn -1.000000 0.000000 0.000000
vn -1.000000 0.000000 0.000000
vn -1.000000 0.000000 0.000000
vn -1.000000 0.000000 0.000000
s 1
g Wall
usemtl initialShadingGroup
f 1/15/1 2/18/2 5/17/3 4/16/4
f 2/18/2 3/13/5 6/14/6 5/17/3
s 2
f 4/4/7 5/3/8 8/24/9 7/21/10
f 5/3/8 6/6/11 9/9/12 8/24/9
s 3
f 7/8/13 8/7/14 11/23/15 10/22/16
f 8/7/14 9/19/17 12/20/18 11/23/15
s 4
f 10/11/19 11/25/20 2/2/21 1/1/22
f 11/10/20 12/12/23 3/5/24 2/26/21
s off
f 3/5/25 12/12/26 9/9/27 6/6/28
f 10/11/29 1/1/30 4/4/31 7/21/32
