# This file uses centimeters as units for non-parametric coordinates.

mtllib Wall_HP.mtl
g default
v -0.992660 0.007340 -0.025061
v -0.974939 0.000000 -0.025061
v -0.974939 0.007340 -0.007340
v -0.974939 0.025061 0.000000
v -0.992660 0.025061 -0.007340
v -1.000000 0.025061 -0.025061
v -0.500000 0.000000 -0.025061
v -0.482279 0.000000 -0.025061
v -0.482281 0.007340 -0.007340
v -0.482279 0.025061 0.000000
v -0.500000 0.025061 0.000000
v -0.517721 0.025061 0.000000
v -0.517721 0.007340 -0.007340
v -0.517721 0.000000 -0.025061
v -0.007340 0.007340 -0.025050
v 0.000000 0.025061 -0.025061
v -0.007340 0.025061 -0.007340
v -0.025061 0.025061 0.000000
v -0.025078 0.007340 -0.007340
v -0.025061 0.000000 -0.025061
v -0.992660 0.992660 -0.025063
v -1.000000 0.974939 -0.025061
v -0.992660 0.974939 -0.007340
v -0.974939 0.974939 0.000000
v -0.974939 0.992660 -0.007340
v -0.974939 1.000000 -0.025061
v -0.501841 0.996103 -0.024789
v -0.519394 1.000000 -0.024838
v -0.518570 0.992660 -0.007265
v -0.517742 0.974908 0.000000
v -0.498739 0.964392 0.000000
v -0.482042 0.938780 0.000000
v -0.485178 0.971611 -0.007144
v -0.487624 0.985149 -0.024758
v -0.003201 0.398841 -0.025819
v -0.012422 0.414907 -0.025802
v -0.018227 0.408499 -0.007125
v -0.023879 0.391355 0.000000
v -0.008567 0.381798 -0.007123
v 0.000000 0.380596 -0.025802
v -0.992660 0.974941 -2.992660
v -1.000000 0.974939 -2.974939
v -0.992660 0.992660 -2.974938
v -0.974939 1.000000 -2.974939
v -0.974939 0.992660 -2.992660
v -0.974939 0.974939 -3.000000
v -0.498792 0.964296 -3.000000
v -0.517848 0.974759 -3.000000
v -0.518667 0.992617 -2.992702
v -0.519481 1.000000 -2.975051
v -0.501864 0.996103 -2.975152
v -0.487624 0.985149 -2.975242
v -0.485178 0.971611 -2.992856
v -0.482042 0.938780 -3.000000
v -0.008579 0.381961 -2.993006
v -0.023879 0.391355 -3.000000
v -0.018133 0.408366 -2.993004
v -0.012244 0.414692 -2.974568
v -0.003155 0.398858 -2.974559
v 0.000000 0.380875 -2.974568
v -0.992660 0.007340 -2.974939
v -1.000000 0.025061 -2.974939
v -0.992660 0.025061 -2.992660
v -0.974939 0.025061 -3.000000
v -0.974939 0.007340 -2.992660
v -0.974939 0.000000 -2.974939
v -0.500000 0.000000 -2.974939
v -0.517721 0.000000 -2.974939
v -0.517720 0.007340 -2.992660
v -0.517721 0.025061 -3.000000
v -0.500000 0.025061 -3.000000
v -0.482279 0.025061 -3.000000
v -0.482281 0.007340 -2.992660
v -0.482279 0.000000 -2.974939
v -0.007340 0.007340 -2.974945
v -0.025061 0.000000 -2.974939
v -0.025078 0.007340 -2.992660
v -0.025061 0.025061 -3.000000
v -0.007340 0.025061 -2.992660
v 0.000000 0.025061 -2.974939
v -0.989403 0.010597 -0.010597
v -0.500004 0.007340 -0.007340
v -0.010588 0.010598 -0.010597
v -0.989403 0.989403 -0.010598
v -0.500443 0.986886 -0.007223
v -0.008381 0.396972 -0.010449
v -0.989403 0.989404 -2.989402
v -0.500481 0.986857 -2.992757
v -0.008352 0.396982 -2.989732
v -0.989403 0.010597 -2.989403
v -0.500003 0.007340 -2.992660
v -0.010587 0.010598 -2.989400
vt 0.078564 0.006342
vt 0.601377 0.006040
vt 0.005904 0.006345
vt 0.585248 0.006318
vt 0.700479 0.006056
vt 0.512588 0.006322
vt 0.504623 0.006322
vt 0.601346 0.197115
vt 0.693314 0.197124
vt 0.700497 0.189858
vt 0.792678 0.079754
vt 0.448123 0.006442
vt 0.086550 0.475126
vt 0.245467 0.475118
vt 0.317847 0.475133
vt 0.324015 0.475163
vt 0.442021 0.475050
vt 0.448100 0.475050
vt 0.504645 0.475107
vt 0.005926 0.475129
vt 0.772321 0.147195
vt 0.772308 0.246027
vt 0.512610 0.475105
vt 0.772307 0.253688
vt 0.772293 0.352520
vt 0.693350 0.006055
vt 0.792452 0.006071
vt 0.245445 0.006335
vt 0.317839 0.006294
vt 0.323993 0.006282
vt 0.441956 0.006443
vt 0.977647 0.147223
vt 0.977594 0.246028
vt 0.969816 0.253767
vt 0.851471 0.352787
vt 0.078585 0.475125
vt 0.585269 0.475102
vt 0.086529 0.006341
vt 0.237480 0.006334
vt 0.237502 0.475119
vt 0.082546 0.006331
vt 0.599452 0.000998
vt 0.080085 0.002359
vt 0.085007 0.002359
vt 0.596336 0.004113
vt 0.588064 0.005396
vt 0.003088 0.005423
vt 0.700553 0.001015
vt 0.585191 0.002336
vt 0.696915 0.006036
vt 0.005960 0.002362
vt 0.693280 0.001014
vt 0.508603 0.006310
vt 0.797494 0.004183
vt 0.506116 0.002339
vt 0.511070 0.002339
vt 0.794374 0.001030
vt 0.241463 0.006325
vt 0.596304 0.199040
vt 0.239002 0.002352
vt 0.243921 0.002351
vt 0.599416 0.202156
vt 0.320919 0.006284
vt 0.692982 0.202171
vt 0.317840 0.002348
vt 0.697127 0.195076
vt 0.324408 0.002348
vt 0.699709 0.198781
vt 0.445041 0.006436
vt 0.795450 0.083931
vt 0.442533 0.002342
vt 0.447588 0.002342
vt 0.797482 0.078268
vt 0.239024 0.479101
vt 0.979718 0.141806
vt 0.241484 0.475128
vt 0.983064 0.145151
vt 0.243943 0.479101
vt 0.975406 0.250135
vt 0.317853 0.479098
vt 0.983050 0.245684
vt 0.320936 0.475152
vt 0.979404 0.252924
vt 0.324431 0.479097
vt 0.849908 0.357948
vt 0.447583 0.479092
vt 0.442580 0.479092
vt 0.855931 0.355789
vt 0.445063 0.475058
vt 0.082568 0.475136
vt 0.770252 0.141777
vt 0.085029 0.479108
vt 0.080107 0.479109
vt 0.766904 0.145124
vt 0.003110 0.476052
vt 0.588086 0.476025
vt 0.766891 0.245950
vt 0.005982 0.479112
vt 0.772285 0.249858
vt 0.585212 0.479085
vt 0.766889 0.253765
vt 0.508624 0.475117
vt 0.766875 0.354583
vt 0.511092 0.479089
vt 0.506137 0.479089
vt 0.770262 0.357937
vt 0.082546 0.002359
vt 0.596337 0.000998
vt 0.696916 0.001014
vt 0.003088 0.002362
vt 0.588064 0.002336
vt 0.508605 0.002339
vt 0.797494 0.001031
vt 0.241463 0.002352
vt 0.596304 0.202155
vt 0.696882 0.202172
vt 0.320921 0.002348
vt 0.445039 0.002342
vt 0.797481 0.081494
vt 0.241485 0.479101
vt 0.983065 0.141807
vt 0.320943 0.479098
vt 0.983050 0.249887
vt 0.853339 0.357948
vt 0.445061 0.479092
vt 0.082568 0.479109
vt 0.766905 0.141777
vt 0.766890 0.249857
vt 0.588086 0.479085
vt 0.003110 0.479112
vt 0.508627 0.479089
vt 0.766875 0.357936
vn -0.015422 -0.999878 0.002441
vn -0.382512 -0.923949 0.001530
vn -0.382512 -0.923949 -0.001530
vn -0.015422 -0.999878 -0.002441
vn -0.923948 -0.382514 0.001530
vn -0.999968 -0.007570 0.002458
vn -0.999968 -0.007570 -0.002458
vn -0.923948 -0.382514 -0.001530
vn -0.015358 -0.007489 0.999854
vn -0.009635 -0.381590 0.924281
vn 0.000000 -0.382683 0.923880
vn 0.000000 -0.007578 0.999971
vn -0.009635 -0.924281 0.381590
vn 0.000000 -0.999997 0.002473
vn 0.000000 -0.923880 0.382684
vn -0.924086 -0.004706 0.382155
vn -0.924086 0.004707 0.382155
vn -0.999968 0.007570 0.002458
vn -0.382154 -0.004706 0.924087
vn -0.015360 0.007445 0.999854
vn -0.382155 0.004707 0.924086
vn 0.000000 -0.999997 0.002473
vn 0.000000 -0.999997 0.002473
vn 0.000000 -0.999997 -0.002473
vn -0.000000 -0.999997 -0.002473
vn 0.000000 -0.999997 -0.002473
vn -0.000000 -0.010981 0.999940
vn -0.000000 -0.382683 0.923880
vn 0.009626 -0.381592 0.924281
vn 0.008746 -0.011171 0.999899
vn 0.000000 -0.923879 0.382684
vn 0.015427 -0.999878 0.002440
vn 0.009621 -0.924279 0.381596
vn 0.000000 -0.007666 0.999971
vn 0.009284 0.009241 0.999914
vn 0.000169 0.007530 0.999972
vn 0.036206 0.030150 0.998889
vn 0.999804 -0.019634 0.002639
vn 0.923950 -0.382511 0.001529
vn 0.923950 -0.382511 -0.001528
vn 0.999804 -0.019621 -0.002639
vn 0.382511 -0.923950 0.001533
vn 0.015425 -0.999878 -0.002440
vn 0.382511 -0.923950 -0.001532
vn 0.398882 -0.013125 0.916908
vn 0.403632 0.003984 0.914913
vn 0.009775 0.004859 0.999940
vn 0.917137 -0.010025 0.398445
vn 0.999960 0.008474 0.002737
vn 0.916735 0.006570 0.399442
vn -0.923948 0.382515 0.001529
vn -0.923948 0.382515 -0.001529
vn -0.999968 0.007570 -0.002458
vn -0.382515 0.923948 0.001529
vn -0.015472 0.999877 0.002442
vn -0.015475 0.999877 -0.002449
vn -0.382515 0.923948 -0.001529
vn -0.009817 0.923736 0.382904
vn 0.010411 0.922736 0.385292
vn 0.008258 0.999963 0.002543
vn -0.009707 0.379684 0.925065
vn 0.004916 0.379620 0.925129
vn 0.423413 0.905933 0.002579
vn 0.423788 0.905758 -0.002602
vn 0.008271 0.999963 -0.002549
vn 0.764907 0.644138 0.001693
vn 0.764914 0.644130 -0.001695
vn 0.707473 0.590015 0.389057
vn 0.710136 0.586933 0.388865
vn 0.770881 0.636974 0.002639
vn 0.302175 0.250005 0.919884
vn 0.300380 0.247510 0.921146
vn 0.940270 0.340424 0.002082
vn 0.940270 0.340424 -0.002029
vn 0.770882 0.636972 -0.002635
vn 0.999960 0.008481 -0.002734
vn -0.924089 0.004707 -0.382149
vn -0.924088 -0.004706 -0.382150
vn -0.382145 0.004707 -0.924090
vn -0.015363 0.007464 -0.999854
vn -0.015361 -0.007490 -0.999854
vn -0.382145 -0.004706 -0.924090
vn -0.009571 0.379465 -0.925156
vn 0.005007 0.379380 -0.925228
vn 0.000171 0.007546 -0.999972
vn -0.009694 0.923637 -0.383146
vn 0.010464 0.922623 -0.385561
vn 0.009234 0.009276 -0.999914
vn 0.000000 -0.007656 -0.999971
vn -0.000000 -0.007579 -0.999971
vn 0.035871 0.029885 -0.998909
vn -0.000000 -0.010981 -0.999940
vn 0.299850 0.248392 -0.921082
vn 0.298003 0.245682 -0.922407
vn 0.009727 0.004836 -0.999941
vn 0.706549 0.589460 -0.391567
vn 0.709164 0.586392 -0.391448
vn 0.400603 0.003750 -0.916244
vn 0.396074 -0.013300 -0.918122
vn 0.008671 -0.011174 -0.999900
vn 0.915578 0.006152 -0.402094
vn 0.916075 -0.010339 -0.400874
vn -0.009635 -0.924281 -0.381591
vn 0.000000 -0.923879 -0.382684
vn -0.009635 -0.381592 -0.924281
vn -0.000000 -0.382685 -0.923879
vn -0.000000 -0.923879 -0.382684
vn 0.009623 -0.924279 -0.381596
vn -0.000000 -0.382685 -0.923879
vn 0.009627 -0.381596 -0.924279
vn -0.887919 -0.325267 0.325270
vn -0.325268 -0.887920 0.325268
vn -0.325270 -0.325270 0.887918
vn 0.000000 -0.923880 0.382683
vn 0.000000 -0.382683 0.923880
vn 0.324963 -0.887958 0.325470
vn 0.888077 -0.324954 0.325153
vn 0.325050 -0.325356 0.887967
vn -0.325299 0.887913 0.325256
vn -0.887913 0.325303 0.325252
vn -0.325291 0.325298 0.887900
vn 0.475581 0.784845 0.397292
vn 0.206965 0.320620 0.924320
vn 0.869254 0.314673 0.381285
vn 0.503411 0.182194 0.844620
vn -0.325241 0.325300 -0.887918
vn -0.887923 0.325293 -0.325233
vn -0.325273 0.887925 -0.325248
vn 0.205126 0.320360 -0.924820
vn 0.472999 0.785809 -0.398467
vn 0.867131 0.313904 -0.386714
vn 0.496489 0.179686 -0.849242
vn -0.325267 -0.887920 -0.325268
vn -0.887918 -0.325271 -0.325269
vn -0.325254 -0.325270 -0.887924
vn 0.000001 -0.923879 -0.382684
vn 0.000001 -0.382685 -0.923879
vn 0.888066 -0.325017 -0.325118
vn 0.325034 -0.887943 -0.325438
vn 0.325086 -0.325413 -0.887933
s 1
g Wall_HP
usemtl initialShadingGroup
f 2/1/1 1/41/2 61/90/3 66/36/4
s 2
f 1/41/5 6/38/6 62/13/7 61/90/8
s 3
f 4/2/9 3/42/10 13/52/11 12/26/12
s 1
f 3/43/13 2/1/1 14/3/14 13/51/15
s 2
f 6/38/6 5/44/16 23/60/17 22/39/18
s 3
f 5/45/19 4/2/9 24/8/20 23/59/21
s 1
f 8/4/22 7/46/23 67/96/24 74/37/25
f 7/47/23 14/3/14 68/20/26 67/95/24
s 3
f 10/5/27 9/48/28 19/57/29 18/27/30
s 1
f 9/49/31 8/4/22 20/6/32 19/56/33
s 3
f 12/26/12 11/50/34 31/66/35 30/9/36
f 11/50/34 10/5/27 32/10/37 31/66/35
s 6
f 16/7/38 15/53/39 75/102/40 80/19/41
s 1
f 15/53/42 20/6/32 76/23/43 75/102/44
s 3
f 18/27/30 17/54/45 39/73/46 38/11/47
s 6
f 17/55/48 16/7/38 40/12/49 39/72/50
s 2
f 22/39/18 21/58/51 43/76/52 42/40/53
s 6
f 21/58/54 26/28/55 44/14/56 43/76/57
f 26/28/55 25/61/58 29/65/59 28/29/60
s 3
f 25/62/61 24/8/20 30/9/36 29/64/62
s 6
f 28/29/60 27/63/63 51/82/64 50/15/65
f 27/63/63 34/30/66 52/16/67 51/82/64
f 34/30/66 33/67/68 37/71/69 36/31/70
s 3
f 33/68/71 32/10/37 38/11/47 37/70/72
s 6
f 36/31/70 35/69/73 59/89/74 58/17/75
f 35/69/73 40/12/49 60/18/76 59/89/74
s 2
f 42/40/53 41/74/77 63/92/78 62/13/7
s 8
f 41/75/79 46/32/80 64/21/81 63/91/82
f 46/32/80 45/77/83 49/81/84 48/33/85
s 6
f 45/78/86 44/14/56 50/15/65 49/80/87
s 8
f 48/33/85 47/79/88 71/99/89 70/22/90
f 47/79/88 54/34/91 72/24/92 71/99/89
f 54/34/91 53/83/93 57/88/94 56/35/95
s 6
f 53/84/96 52/16/67 58/17/75 57/87/97
s 8
f 56/35/95 55/85/98 79/106/99 78/25/100
s 6
f 55/86/101 60/18/76 80/19/41 79/105/102
s 1
f 66/36/4 65/93/103 69/98/104 68/20/26
s 8
f 65/94/105 64/21/81 70/22/90 69/97/106
s 1
f 74/37/25 73/100/107 77/104/108 76/23/43
s 8
f 73/101/109 72/24/92 78/25/100 77/103/110
s 3
f 4/2/9 12/26/12 30/9/36 24/8/20
f 10/5/27 18/27/30 38/11/47 32/10/37
s 6
f 26/28/55 28/29/60 50/15/65 44/14/56
f 34/30/66 36/31/70 58/17/75 52/16/67
s 8
f 46/32/80 48/33/85 70/22/90 64/21/81
f 54/34/91 56/35/95 78/25/100 72/24/92
s 1
f 66/36/4 68/20/26 14/3/14 2/1/1
f 74/37/25 76/23/43 20/6/32 8/4/22
s 6
f 16/7/38 80/19/41 60/18/76 40/12/49
s 2
f 62/13/7 6/38/6 22/39/18 42/40/53
f 5/44/16 6/38/6 1/41/5 81/107/111
s 1
f 1/41/2 2/1/1 3/43/13 81/107/112
s 3
f 3/42/10 4/2/9 5/45/19 81/108/113
s 1
f 13/51/15 14/3/14 7/47/23 82/110/114
f 7/46/23 8/4/22 9/49/31 82/111/114
s 3
f 9/48/28 10/5/27 11/50/34 82/109/115
f 11/50/34 12/26/12 13/52/11 82/109/115
s 1
f 19/56/33 20/6/32 15/53/42 83/112/116
s 6
f 15/53/39 16/7/38 17/55/48 83/112/117
s 3
f 17/54/45 18/27/30 19/57/29 83/113/118
s 6
f 25/61/58 26/28/55 21/58/54 84/114/119
s 2
f 21/58/51 22/39/18 23/60/17 84/114/120
s 3
f 23/59/21 24/8/20 25/62/61 84/115/121
s 6
f 33/67/68 34/30/66 27/63/63 85/117/122
f 27/63/63 28/29/60 29/65/59 85/117/122
s 3
f 29/64/62 30/9/36 31/66/35 85/116/123
f 31/66/35 32/10/37 33/68/71 85/116/123
s 6
f 39/72/50 40/12/49 35/69/73 86/118/124
f 35/69/73 36/31/70 37/71/69 86/118/124
s 3
f 37/70/72 38/11/47 39/73/46 86/119/125
s 8
f 45/77/83 46/32/80 41/75/79 87/121/126
s 2
f 41/74/77 42/40/53 43/76/52 87/120/127
s 6
f 43/76/57 44/14/56 45/78/86 87/120/128
s 8
f 53/83/93 54/34/91 47/79/88 88/123/129
f 47/79/88 48/33/85 49/81/84 88/123/129
s 6
f 49/80/87 50/15/65 51/82/64 88/122/130
f 51/82/64 52/16/67 53/84/96 88/122/130
f 59/89/74 60/18/76 55/86/101 89/125/131
s 8
f 55/85/98 56/35/95 57/88/94 89/124/132
s 6
f 57/87/97 58/17/75 59/89/74 89/125/131
s 1
f 65/93/103 66/36/4 61/90/3 90/126/133
s 2
f 61/90/8 62/13/7 63/92/78 90/126/134
s 8
f 63/91/82 64/21/81 65/94/105 90/127/135
s 1
f 73/100/107 74/37/25 67/96/24 91/129/136
f 67/95/24 68/20/26 69/98/104 91/130/136
s 8
f 69/97/106 70/22/90 71/99/89 91/128/137
f 71/99/89 72/24/92 73/101/109 91/128/137
s 6
f 79/105/102 80/19/41 75/102/40 92/131/138
s 1
f 75/102/44 76/23/43 77/104/108 92/131/139
s 8
f 77/103/110 78/25/100 79/106/99 92/132/140
