# This file uses centimeters as units for non-parametric coordinates.

mtllib InsideCorner_LP.mtl
g default
v 3.000000 0.000000 -2.000000
v 3.000000 0.000000 -2.500000
v 3.000000 0.000000 -3.000000
v 3.000000 1.000000 -2.000000
v 3.000000 1.000000 -2.500000
v 3.000000 0.400000 -3.000000
v 0.000925 0.401081 -3.000000
v 0.000925 0.000000 -3.000000
v 1.000048 1.000000 -2.004108
v 0.500048 1.000000 -2.502951
v 1.000048 0.000000 -2.004108
v 0.500048 0.000000 -2.502951
v 1.000000 1.000000 0.000000
v 0.500000 1.000000 0.000000
v 0.000000 0.400000 0.000000
v 1.000000 0.000000 0.000000
v 0.500000 0.000000 0.000000
v 0.000000 0.000000 0.000000
vt 0.082546 0.519172
vt 0.003088 0.519176
vt 0.320921 0.519161
vt 0.241463 0.519165
vt 0.508605 0.519152
vt 0.445039 0.519155
vt 0.445061 0.995897
vt 0.508627 0.995895
vt 0.797494 0.552639
vt 0.797481 0.633103
vt 0.596337 0.552606
vt 0.596304 0.753764
vt 0.696882 0.753780
vt 0.696916 0.552623
vt 0.588064 0.519149
vt 0.241477 0.836983
vt 0.320939 0.916437
vt 0.082561 0.836990
vt 0.003106 0.916452
vt 0.588082 0.916425
vt 0.983065 0.014635
vt 0.983050 0.122715
vt 0.766890 0.122685
vt 0.766905 0.014605
vt 0.853339 0.230776
vt 0.766875 0.230764
vt 0.082568 0.479109
vt 0.003110 0.479112
vt 0.003091 0.080883
vt 0.082553 0.159970
vt 0.588086 0.479085
vt 0.508627 0.479089
vt 0.508892 0.002339
vt 0.588067 0.080856
vt 0.445061 0.479092
vt 0.444592 0.002342
vt 0.241470 0.159962
vt 0.241485 0.479101
vt 0.320925 0.080868
vt 0.320943 0.479098
vn 1.000000 0.000000 0.000000
vn 1.000000 0.000000 0.000000
vn 1.000000 0.000000 0.000000
vn 1.000000 0.000000 0.000000
vn 1.000000 0.000000 0.000000
vn 1.000000 0.000000 0.000000
vn 0.000000 1.000000 0.000000
vn 0.000386 0.834305 -0.551304
vn -0.386300 0.837297 -0.386920
vn 0.000000 1.000000 0.000000
vn 0.000538 0.639276 -0.768978
vn -0.458373 0.762224 -0.457066
vn 0.000000 0.000000 -1.000000
vn 0.000000 0.000000 -1.000000
vn 0.000000 0.000000 -1.000000
vn 0.000000 0.000000 -1.000000
vn 0.000000 -1.000000 0.000000
vn 0.000000 -1.000000 0.000000
vn 0.000000 -1.000000 0.000000
vn 0.000000 -1.000000 0.000000
vn 0.000000 -1.000000 0.000000
vn 0.000000 -1.000000 0.000000
vn 0.707107 0.000000 0.707107
vn 0.707107 0.000000 0.707107
vn -0.002054 0.000000 0.999998
vn -0.002054 0.000000 0.999998
vn 0.000000 0.000000 1.000000
vn 0.000000 0.000000 1.000000
vn 0.000000 0.000000 1.000000
vn 0.000000 0.000000 1.000000
vn 0.000000 0.000000 1.000000
vn 0.000000 0.000000 1.000000
vn 0.000000 -1.000000 0.000000
vn 0.000000 -1.000000 0.000000
vn 0.000000 -1.000000 0.000000
vn -1.000000 -0.000000 -0.000308
vn -1.000000 -0.000000 -0.000308
vn -1.000000 -0.000000 -0.000308
vn -1.000000 -0.000000 -0.000308
vn 1.000000 0.000000 0.000024
vn 1.000000 0.000000 0.000024
vn -0.550518 0.834824 -0.000007
vn 0.000000 1.000000 0.000000
vn -0.768212 0.640196 -0.000010
s 1
g InsideCorner
usemtl initialShadingGroup
f 1/11/1 2/14/2 5/13/3 4/12/4
f 2/14/2 3/9/5 6/10/6 5/13/3
s 2
f 4/4/7 5/3/8 10/17/9 9/16/10
f 5/3/8 6/6/11 7/7/12 10/17/9
s off
f 3/5/13 8/8/14 7/7/15 6/6/16
s 3
f 11/18/17 12/19/18 2/2/19 1/1/20
f 12/20/18 8/8/21 3/5/22 2/15/19
s 4
f 9/16/23 11/18/24 1/1/25 4/4/26
s 5
f 13/21/27 14/22/28 17/23/29 16/24/30
f 14/22/28 15/25/31 18/26/32 17/23/29
s 3
f 16/27/33 17/28/34 12/29/18 11/30/17
f 17/31/34 18/32/35 8/33/21 12/34/18
s off
f 8/33/36 18/32/37 15/35/38 7/36/39
s 4
f 16/27/40 11/30/24 9/37/23 13/38/41
s 2
f 9/37/10 10/39/9 14/40/42 13/38/43
f 10/39/9 7/36/12 15/35/44 14/40/42
