# This file uses centimeters as units for non-parametric coordinates.

mtllib Locker1Unit_LP.mtl
g default
v 0.000000 0.000000 0.000000
v 1.000000 0.000000 0.000000
v 0.000000 3.000000 0.000000
v 1.000000 3.000000 0.000000
v 0.000000 3.000000 -1.000000
v 1.000000 3.000000 -1.000000
v 0.000000 0.000000 -1.000000
v 1.000000 0.000000 -1.000000
v 1.000000 1.500000 -1.000000
v 0.000000 1.500000 -1.000000
v 0.000000 1.500000 0.000000
v 1.000000 1.500000 0.000000
v 1.000000 1.552000 -0.052000
v 1.000000 1.552000 -0.948000
v 1.000000 2.948000 -0.948000
v 1.000000 2.948000 -0.052000
v 1.000000 0.052000 -0.948000
v 1.000000 0.052000 -0.052000
v 1.000000 1.448000 -0.948000
v 1.000000 1.448000 -0.052000
v 1.024000 1.552000 -0.052000
v 1.024000 1.552000 -0.948000
v 1.024000 2.948000 -0.948000
v 1.024000 2.948000 -0.052000
v 1.024000 0.052000 -0.948000
v 1.024000 0.052000 -0.052000
v 1.024000 1.448000 -0.948000
v 1.024000 1.448000 -0.052000
v 1.024000 1.552000 -0.052000
v 1.024000 1.552000 -0.948000
v 1.024000 2.948000 -0.948000
v 1.024000 2.948000 -0.052000
v 1.024000 0.052000 -0.948000
v 1.024000 0.052000 -0.052000
v 1.024000 1.448000 -0.948000
v 1.024000 1.448000 -0.052000
v 1.024000 1.914000 -0.148295
v 1.024000 1.914000 -0.320295
v 1.024000 2.586000 -0.320295
v 1.024000 2.586000 -0.148295
v 1.024000 0.414000 -0.320295
v 1.024000 0.414000 -0.148295
v 1.024000 1.086000 -0.320295
v 1.024000 1.086000 -0.148295
v 0.997000 1.914000 -0.148295
v 0.997000 1.914000 -0.320295
v 0.997000 2.586000 -0.320295
v 0.997000 2.586000 -0.148295
v 0.997000 0.414000 -0.320295
v 0.997000 0.414000 -0.148295
v 0.997000 1.086000 -0.320295
v 0.997000 1.086000 -0.148295
vt 0.697856 0.626484
vt 0.019288 0.644249
vt 0.010419 0.988476
vt 0.695592 0.958095
vt 0.246021 0.996253
vt 0.472098 0.958128
vt 0.249767 0.646849
vt 0.474468 0.626499
vt 0.474426 0.294875
vt 0.247120 0.294847
vt 0.010486 0.302565
vt 0.695509 0.294848
vt 0.059068 0.743023
vt 0.092475 0.744595
vt 0.087457 0.890520
vt 0.054180 0.886790
vt 0.055185 0.400860
vt 0.089848 0.401871
vt 0.090598 0.547268
vt 0.057836 0.543873
vt 0.237200 0.658920
vt 0.031596 0.656120
vt 0.234159 0.983786
vt 0.022601 0.976350
vt 0.235407 0.307691
vt 0.022906 0.314385
vt 0.237969 0.634916
vt 0.030730 0.632358
vt 0.232759 0.661664
vt 0.036091 0.658704
vt 0.230157 0.980832
vt 0.026492 0.973141
vt 0.231604 0.310926
vt 0.026989 0.317330
vt 0.233814 0.632364
vt 0.034672 0.629482
vt 0.232733 0.661676
vt 0.036123 0.658705
vt 0.230138 0.980826
vt 0.026499 0.973141
vt 0.231598 0.310934
vt 0.027001 0.317346
vt 0.233812 0.632360
vt 0.034694 0.629471
vt 0.096854 0.742015
vt 0.054330 0.741156
vt 0.092014 0.892947
vt 0.049676 0.889509
vt 0.094390 0.399225
vt 0.050258 0.399053
vt 0.095148 0.549557
vt 0.053345 0.546419
vt 0.918939 0.626472
vt 0.918957 0.958095
vt 0.017491 0.016733
vt 0.695550 0.626471
vt 0.017501 0.237822
vt 0.697875 0.958108
vt 0.472146 0.626504
vt 0.238575 0.237827
vt 0.472195 0.294880
vt 0.251064 0.626472
vt 0.251112 0.294848
vt 0.017486 0.237806
vt 0.017506 0.016717
vt 0.918920 0.294848
vt 0.697837 0.294860
vt 0.238595 0.016738
vt 0.238580 0.016723
vt 0.251015 0.958095
vt 0.238590 0.237811
vt 0.474509 0.958123
vn 0.000000 0.000000 1.000000
vn 0.000000 0.000000 1.000000
vn 0.000000 0.000000 1.000000
vn 0.000000 0.000000 1.000000
vn 0.000000 1.000000 0.000000
vn 0.000000 1.000000 0.000000
vn 0.000000 1.000000 0.000000
vn 0.000000 1.000000 0.000000
vn 0.000000 0.000000 -1.000000
vn 0.000000 0.000000 -1.000000
vn 0.000000 0.000000 -1.000000
vn 0.000000 0.000000 -1.000000
vn 0.000000 -1.000000 0.000000
vn 0.000000 -1.000000 0.000000
vn 0.000000 -1.000000 0.000000
vn 0.000000 -1.000000 0.000000
vn 1.000000 0.000000 0.000000
vn 1.000000 0.000000 0.000000
vn 1.000000 0.000000 0.000000
vn 1.000000 0.000000 0.000000
vn -1.000000 0.000000 0.000000
vn -1.000000 0.000000 0.000000
vn -1.000000 0.000000 0.000000
vn -1.000000 0.000000 0.000000
vn 0.000000 0.000000 -1.000000
vn 0.000000 0.000000 -1.000000
vn -1.000000 0.000000 0.000000
vn -1.000000 0.000000 0.000000
vn 0.000000 0.000000 1.000000
vn 0.000000 0.000000 1.000000
vn 1.000000 0.000000 0.000000
vn 1.000000 0.000000 0.000000
vn 1.000000 0.000000 0.000000
vn 1.000000 0.000000 0.000000
vn 1.000000 0.000000 0.000000
vn 1.000000 0.000000 0.000000
vn 1.000000 0.000000 0.000000
vn 1.000000 0.000000 0.000000
vn 1.000000 0.000000 0.000000
vn 1.000000 0.000000 0.000000
vn 1.000000 0.000000 0.000000
vn 1.000000 0.000000 0.000000
vn 1.000000 0.000000 0.000000
vn 1.000000 0.000000 0.000000
vn 1.000000 0.000000 0.000000
vn 1.000000 0.000000 0.000000
vn 1.000000 0.000000 0.000000
vn 1.000000 0.000000 0.000000
vn 0.000000 -1.000000 0.000000
vn 0.000000 -1.000000 0.000000
vn 0.000000 -1.000000 0.000000
vn 0.000000 -1.000000 0.000000
vn 0.000000 0.000000 -1.000000
vn 0.000000 0.000000 -1.000000
vn 0.000000 0.000000 -1.000000
vn 0.000000 0.000000 -1.000000
vn 0.000000 1.000000 0.000000
vn 0.000000 1.000000 0.000000
vn 0.000000 1.000000 0.000000
vn 0.000000 1.000000 0.000000
vn 0.000000 0.000000 1.000000
vn 0.000000 0.000000 1.000000
vn 0.000000 0.000000 1.000000
vn 0.000000 0.000000 1.000000
vn 0.000000 -1.000000 0.000000
vn 0.000000 -1.000000 0.000000
vn 0.000000 -1.000000 0.000000
vn 0.000000 -1.000000 0.000000
vn 0.000000 0.000000 -1.000000
vn 0.000000 0.000000 -1.000000
vn 0.000000 0.000000 -1.000000
vn 0.000000 0.000000 -1.000000
vn 0.000000 1.000000 0.000000
vn 0.000000 1.000000 0.000000
vn 0.000000 1.000000 0.000000
vn 0.000000 1.000000 0.000000
vn 0.000000 0.000000 1.000000
vn 0.000000 0.000000 1.000000
vn 0.000000 0.000000 1.000000
vn 0.000000 0.000000 1.000000
vn -1.000000 0.000000 0.000000
vn -1.000000 0.000000 0.000000
vn -1.000000 0.000000 0.000000
vn -1.000000 0.000000 0.000000
vn -1.000000 0.000000 0.000000
vn -1.000000 0.000000 0.000000
vn -1.000000 0.000000 0.000000
vn -1.000000 0.000000 0.000000
vn -0.999910 -0.013392 0.000000
vn -0.999910 -0.013392 0.000000
vn -0.999910 -0.013392 0.000000
vn -0.999910 -0.013392 0.000000
vn 0.000000 0.000000 0.000000
vn 0.000000 0.000000 0.000000
vn 0.000000 0.000000 0.000000
vn 0.000000 0.000000 0.000000
vn 1.000000 0.000000 0.000000
vn 1.000000 0.000000 0.000000
vn 1.000000 0.000000 0.000000
vn 1.000000 0.000000 0.000000
vn -1.000000 0.000000 0.000000
vn -1.000000 0.000000 0.000000
vn -1.000000 0.000000 0.000000
vn -1.000000 0.000000 0.000000
vn -0.999642 -0.026776 0.000000
vn -0.999642 -0.026776 0.000000
vn -0.999642 -0.026776 0.000000
vn -0.999642 -0.026776 0.000000
vn -1.000000 0.000000 0.000000
vn -0.000000 0.000000 0.000000
vn -1.000000 0.000000 0.000000
vn -0.000000 0.000000 0.000000
vn 1.000000 -0.000000 0.000000
vn 1.000000 -0.000000 0.000000
vn 1.000000 -0.000000 0.000000
vn 1.000000 -0.000000 0.000000
vn 1.000000 0.000000 0.000000
vn 1.000000 0.000000 0.000000
vn 1.000000 0.000000 0.000000
vn 1.000000 0.000000 0.000000
vn 1.000000 -0.000000 0.000000
vn 1.000000 -0.000000 0.000000
vn 1.000000 -0.000000 0.000000
vn 1.000000 -0.000000 0.000000
vn 1.000000 0.000000 0.000000
vn 1.000000 0.000000 0.000000
vn 1.000000 0.000000 0.000000
vn 1.000000 0.000000 0.000000
vn 0.000000 1.000000 0.000000
vn 0.000000 1.000000 0.000000
vn 0.000000 1.000000 0.000000
vn 0.000000 1.000000 0.000000
vn 0.000000 0.000000 1.000000
vn 0.000000 0.000000 1.000000
vn 0.000000 0.000000 1.000000
vn 0.000000 0.000000 1.000000
vn 0.000000 -1.000000 0.000000
vn 0.000000 -1.000000 0.000000
vn 0.000000 -1.000000 0.000000
vn 0.000000 -1.000000 0.000000
vn 0.000000 0.000000 -1.000000
vn 0.000000 0.000000 -1.000000
vn 0.000000 0.000000 -1.000000
vn 0.000000 0.000000 -1.000000
vn 0.000000 1.000000 0.000000
vn 0.000000 1.000000 0.000000
vn 0.000000 1.000000 0.000000
vn 0.000000 1.000000 0.000000
vn 0.000000 0.000000 1.000000
vn 0.000000 0.000000 1.000000
vn 0.000000 0.000000 1.000000
vn 0.000000 0.000000 1.000000
vn 0.000000 -1.000000 0.000000
vn 0.000000 -1.000000 0.000000
vn 0.000000 -1.000000 0.000000
vn 0.000000 -1.000000 0.000000
vn 0.000000 0.000000 -1.000000
vn 0.000000 0.000000 -1.000000
vn 0.000000 0.000000 -1.000000
vn 0.000000 0.000000 -1.000000
s 1
g Locker1Unit
usemtl initialShadingGroup
f 11/1/1 12/53/2 4/54/3 3/58/4
s off
f 3/57/5 4/55/6 6/69/7 5/71/8
s 2
f 5/6/9 6/70/10 9/62/11 10/59/12
s off
f 7/60/13 8/64/14 2/65/15 1/68/16
f 45/13/17 46/14/18 47/15/19 48/16/20
s 3
f 10/8/21 11/56/22 3/4/23 5/72/24
s 2
f 10/59/12 9/62/11 8/63/25 7/61/26
s 3
f 7/9/27 1/12/28 11/56/22 10/8/21
s 1
f 1/67/29 2/66/30 12/53/2 11/1/1
s off
f 50/17/31 49/18/32 51/19/33 52/20/34
s 4
f 12/2/35 9/7/36 14/21/37 13/22/38
f 9/7/36 6/5/39 15/23/40 14/21/37
f 6/5/39 4/3/41 16/24/42 15/23/40
f 4/3/41 12/2/35 13/22/38 16/24/42
f 2/11/43 8/10/44 17/25/45 18/26/46
f 8/10/44 9/7/36 19/27/47 17/25/45
f 9/7/36 12/2/35 20/28/48 19/27/47
f 12/2/35 2/11/43 18/26/46 20/28/48
s off
f 13/22/49 14/21/50 22/29/51 21/30/52
f 14/21/53 15/23/54 23/31/55 22/29/56
f 15/23/57 16/24/58 24/32/59 23/31/60
f 16/24/61 13/22/62 21/30/63 24/32/64
f 18/26/65 17/25/66 25/33/67 26/34/68
f 17/25/69 19/27/70 27/35/71 25/33/72
f 19/27/73 20/28/74 28/36/75 27/35/76
f 20/28/77 18/26/78 26/34/79 28/36/80
f 21/30/81 22/29/82 30/37/83 29/38/84
f 22/29/85 23/31/86 31/39/87 30/37/88
f 23/31/89 24/32/90 32/40/91 31/39/92
f 24/32/93 21/30/94 29/38/95 32/40/96
f 26/34/97 25/33/98 33/41/99 34/42/100
f 25/33/101 27/35/102 35/43/103 33/41/104
f 27/35/105 28/36/106 36/44/107 35/43/108
f 28/36/109 26/34/110 34/42/111 36/44/112
s 6
f 29/38/113 30/37/114 38/45/115 37/46/116
f 30/37/114 31/39/117 39/47/118 38/45/115
f 31/39/117 32/40/119 40/48/120 39/47/118
f 32/40/119 29/38/113 37/46/116 40/48/120
s 7
f 34/42/121 33/41/122 41/49/123 42/50/124
f 33/41/122 35/43/125 43/51/126 41/49/123
f 35/43/125 36/44/127 44/52/128 43/51/126
f 36/44/127 34/42/121 42/50/124 44/52/128
s off
f 37/46/129 38/45/130 46/14/131 45/13/132
f 38/45/133 39/47/134 47/15/135 46/14/136
f 39/47/137 40/48/138 48/16/139 47/15/140
f 40/48/141 37/46/142 45/13/143 48/16/144
f 42/50/145 41/49/146 49/18/147 50/17/148
f 41/49/149 43/51/150 51/19/151 49/18/152
f 43/51/153 44/52/154 52/20/155 51/19/156
f 44/52/157 42/50/158 50/17/159 52/20/160
