# This file uses centimeters as units for non-parametric coordinates.

mtllib SoccarBall_LP.mtl
g default
v -12.714129 0.933551 6.056410
v -12.318881 0.852125 6.056410
v -12.936914 0.852125 5.729933
v -12.858226 0.852125 6.424455
v -12.146419 0.689274 5.729933
v -12.218701 0.720376 6.424455
v -13.303797 0.689274 5.771500
v -12.764453 0.689274 5.403455
v -12.552034 0.720376 6.651919
v -13.225108 0.689274 6.466023
v -11.873776 0.394674 5.771500
v -12.369204 0.607849 5.403455
v -11.946058 0.425775 6.466023
v -13.358081 0.425775 5.470713
v -13.447894 0.607849 6.139545
v -13.024748 0.425775 5.243249
v -12.612725 0.425775 6.920951
v -13.285799 0.394674 6.735054
v -11.928060 0.131175 5.470713
v -11.773596 0.262924 6.139545
v -12.234251 0.262924 5.243249
v -12.006750 0.131175 6.735054
v -13.556461 0.080852 5.537971
v -13.646274 0.262924 6.206803
v -12.889795 0.080852 5.083042
v -12.340083 0.131175 6.962519
v -12.979608 0.262924 6.962519
v -13.546094 0.131175 6.574848
v -11.882164 -0.264073 5.537971
v -11.727704 -0.132323 6.206803
v -12.494547 -0.000574 5.083042
v -11.871797 -0.213750 6.574848
v -13.421508 -0.264073 5.377765
v -13.700554 -0.000574 5.906016
v -13.088175 -0.264073 5.150300
v -12.538463 -0.213750 7.029777
v -12.933711 -0.132323 7.029777
v -13.500197 -0.264073 6.642106
v -12.142459 -0.527571 5.377765
v -11.781984 -0.395822 5.906016
v -12.448650 -0.395822 5.150300
v -12.070177 -0.558673 6.642106
v -13.482199 -0.558673 5.646797
v -13.654662 -0.395822 5.973274
v -12.815532 -0.558673 5.191868
v -12.403510 -0.558673 6.869570
v -13.194006 -0.395822 6.869570
v -13.554481 -0.527571 6.341320
v -12.203149 -0.822172 5.646797
v -11.980364 -0.740747 5.973274
v -12.124461 -0.822172 6.341320
v -13.209557 -0.853274 5.688365
v -12.876224 -0.853274 5.460900
v -12.663805 -0.822172 6.709365
v -13.059053 -0.740747 6.709365
v -13.281839 -0.822172 6.382887
v -12.570032 -0.985023 5.688365
v -12.491343 -0.985023 6.382887
v -13.109377 -0.985023 6.056410
v -12.714129 -1.066449 6.056410
vt 0.032258 0.299280
vt 0.096774 0.299280
vt 0.129032 0.355153
vt 0.096774 0.411025
vt 0.032258 0.411025
vt 0.000000 0.355153
vt 0.225806 0.299280
vt 0.290323 0.299280
vt 0.322581 0.355153
vt 0.290323 0.411025
vt 0.225806 0.411025
vt 0.193548 0.355153
vt 0.419355 0.299280
vt 0.483871 0.299280
vt 0.516129 0.355153
vt 0.483871 0.411025
vt 0.419355 0.411025
vt 0.387097 0.355153
vt 0.612903 0.299280
vt 0.677419 0.299280
vt 0.709677 0.355153
vt 0.677419 0.411025
vt 0.612903 0.411025
vt 0.580645 0.355153
vt 0.806452 0.299280
vt 0.870968 0.299280
vt 0.903226 0.355153
vt 0.870968 0.411025
vt 0.806452 0.411025
vt 0.774194 0.355153
vt 0.903226 0.466898
vt 0.870968 0.522771
vt 0.806452 0.522771
vt 0.774194 0.466898
vt 0.709677 0.466898
vt 0.677419 0.522771
vt 0.612903 0.522771
vt 0.580645 0.466898
vt 0.516129 0.466898
vt 0.483871 0.522771
vt 0.419355 0.522771
vt 0.387097 0.466898
vt 0.322581 0.466898
vt 0.290323 0.522771
vt 0.225806 0.522771
vt 0.193548 0.466898
vt 0.129032 0.466898
vt 0.096774 0.522771
vt 0.032258 0.522771
vt 0.000000 0.466898
vt 0.193548 0.578643
vt 0.129032 0.578643
vt 0.387097 0.578643
vt 0.322581 0.578643
vt 0.580645 0.578643
vt 0.516129 0.578643
vt 0.774194 0.578643
vt 0.709677 0.578643
vt 0.967742 0.466898
vt 1.000000 0.522771
vt 0.967742 0.578643
vt 0.903226 0.578643
vt 1.000000 0.634516
vt 0.967742 0.690388
vt 0.903226 0.690388
vt 0.870968 0.634516
vt 0.806452 0.634516
vt 0.774194 0.690388
vt 0.709677 0.690388
vt 0.677419 0.634516
vt 0.612903 0.634516
vt 0.580645 0.690388
vt 0.516129 0.690388
vt 0.483871 0.634516
vt 0.419355 0.634516
vt 0.387097 0.690388
vt 0.322581 0.690388
vt 0.290323 0.634516
vt 0.225806 0.634516
vt 0.193548 0.690388
vt 0.129032 0.690388
vt 0.096774 0.634516
vt 0.116711 0.584129
vt 0.064516 0.622051
vt 0.012321 0.584129
vt 0.310259 0.584129
vt 0.258065 0.622051
vt 0.205870 0.584129
vt 0.503808 0.584129
vt 0.451613 0.622051
vt 0.399418 0.584129
vt 0.697356 0.584129
vt 0.645161 0.622051
vt 0.592967 0.584129
vt 0.890904 0.584129
vt 0.838710 0.622051
vt 0.786515 0.584129
vt 0.213485 0.751747
vt 0.161290 0.789669
vt 0.109096 0.751747
vt 0.109096 0.405539
vt 0.161290 0.367618
vt 0.213485 0.405539
vt 0.302644 0.405539
vt 0.354839 0.367618
vt 0.407033 0.405539
vt 0.496192 0.405539
vt 0.548387 0.367618
vt 0.600582 0.405539
vt 0.689741 0.405539
vt 0.741935 0.367618
vt 0.794130 0.405539
vt 0.883289 0.405539
vt 0.935484 0.367618
vt 0.987679 0.405539
vt 0.205870 0.237922
vt 0.258065 0.200000
vt 0.310259 0.237922
vn -0.040557 0.997408 -0.059434
vn 0.431478 0.900163 -0.059434
vn 0.543258 0.794613 -0.271036
vn 0.277190 0.697368 -0.660941
vn 0.021014 0.750143 -0.660941
vn -0.184953 0.944633 -0.271037
vn -0.623114 0.750143 -0.221394
vn -0.716508 0.697368 0.017151
vn -0.450440 0.794613 0.407056
vn -0.212649 0.900163 0.380114
vn 0.153029 0.742818 0.651769
vn 0.551121 0.742818 0.380114
vn 0.727832 0.551876 0.407055
vn 0.933799 0.357386 0.017152
vn 0.868869 0.442778 -0.221392
vn -0.289851 0.435453 -0.852272
vn -0.687943 0.435452 -0.580616
vn -0.522922 0.442778 0.728354
vn -0.324467 0.357386 0.875783
vn 0.113692 0.551876 0.826140
vn 0.804039 0.128087 -0.580615
vn 0.438361 0.285433 -0.852272
vn 0.439303 0.200041 0.875783
vn 0.655350 0.200041 0.728354
vn -0.816521 0.211894 -0.537023
vn -0.988612 0.114650 -0.097477
vn -0.953429 0.285433 0.097476
vn 0.269653 0.114649 -0.956108
vn -0.202382 0.211894 -0.956108
vn -0.833786 0.128089 0.537023
vn 0.988612 -0.114650 0.097477
vn 0.953429 -0.285433 -0.097476
vn 0.833786 -0.128089 -0.537023
vn 0.816521 -0.211894 0.537023
vn -0.439303 -0.200041 -0.875783
vn -0.655350 -0.200041 -0.728354
vn -0.269653 -0.114649 0.956108
vn 0.202382 -0.211894 0.956108
vn -0.804039 -0.128087 0.580615
vn -0.438361 -0.285433 0.852272
vn 0.522922 -0.442779 -0.728354
vn 0.324467 -0.357386 -0.875783
vn 0.289851 -0.435453 0.852272
vn 0.687943 -0.435452 0.580616
vn -0.727832 -0.551876 -0.407055
vn -0.933799 -0.357386 -0.017152
vn -0.868869 -0.442778 0.221392
vn -0.113692 -0.551876 -0.826140
vn 0.716508 -0.697368 -0.017152
vn 0.450440 -0.794613 -0.407056
vn 0.623114 -0.750143 0.221394
vn -0.153029 -0.742818 -0.651769
vn -0.551121 -0.742818 -0.380114
vn -0.277190 -0.697368 0.660941
vn -0.021014 -0.750143 0.660941
vn -0.543258 -0.794613 0.271036
vn 0.212649 -0.900163 -0.380114
vn 0.184953 -0.944633 0.271037
vn -0.431478 -0.900164 0.059434
vn 0.040557 -0.997408 0.059434
s 1
g SoccarBall
usemtl initialShadingGroup
f 1/17/1 2/18/2 5/13/3 12/14/4 8/15/5 3/16/6
f 1/17/1 3/16/6 7/39/7 15/40/8 10/41/9 4/42/10
f 4/42/10 9/43/11 6/104/12 2/105/2 1/106/1
f 6/10/12 13/11/13 20/12/14 11/7/15 5/8/3 2/9/2
f 8/108/5 16/109/16 14/38/17 7/39/7 3/107/6
f 10/41/9 18/53/18 27/54/19 17/44/20 9/43/11 4/42/10
f 5/7/3 11/116/15 19/117/21 21/118/22 12/8/4
f 6/10/12 9/43/11 17/44/20 26/45/23 22/46/24 13/11/13
f 7/39/7 14/38/17 23/37/25 34/55/26 24/56/27 15/40/8
f 8/24/5 12/19/4 21/20/22 31/21/28 25/22/29 16/23/16
f 10/41/9 15/40/8 24/89/27 28/90/30 18/91/18
f 20/3/14 30/4/31 40/5/32 29/6/33 19/1/21 11/2/15
f 22/46/24 32/47/34 30/101/31 20/102/14 13/103/13
f 14/38/17 16/23/16 25/22/29 35/35/35 33/36/36 23/37/25
f 27/86/19 37/87/37 36/88/38 26/45/23 17/44/20
f 28/75/30 38/76/39 47/77/40 37/78/37 27/54/19 18/53/18
f 29/27/33 39/28/41 41/29/42 31/30/28 21/25/22 19/26/21
f 22/46/24 26/45/23 36/51/38 46/52/43 42/48/44 32/47/34
f 23/37/25 33/36/36 43/92/45 44/93/46 34/94/26
f 34/55/26 44/71/46 48/72/47 38/73/39 28/74/30 24/56/27
f 25/110/29 31/111/28 41/112/42 45/34/48 35/35/35
f 40/115/32 50/59/49 49/31/50 39/113/41 29/114/33
f 30/4/31 32/47/34 42/48/44 51/49/51 50/50/49 40/5/32
f 33/36/36 35/35/35 45/34/48 53/33/52 52/57/53 43/58/45
f 36/51/38 37/79/37 47/80/40 55/81/54 54/82/55 46/52/43
f 48/99/47 56/100/56 55/81/54 47/80/40 38/98/39
f 49/31/50 57/32/57 53/33/52 45/34/48 41/29/42 39/28/41
f 42/48/44 46/83/43 54/84/55 58/85/58 51/49/51
f 52/57/53 59/67/59 56/68/56 48/69/47 44/70/46 43/58/45
f 49/31/50 50/59/49 51/60/51 58/61/58 60/62/60 57/32/57
f 52/97/53 53/33/52 57/32/57 60/95/60 59/96/59
f 54/63/55 55/64/54 56/65/56 59/66/59 60/62/60 58/61/58
